<?xml version="1.0" encoding="UTF-8"?>
<svg id="Layer_1" xmlns="http://www.w3.org/2000/svg" version="1.1" viewBox="0 0 1539.52 508.4">
  <!-- Generator: Adobe Illustrator 29.8.5, SVG Export Plug-In . SVG Version: 2.1.1 Build 2)  -->
  <defs>
    <style>
      .st0 {
        fill: #f4ecdf;
      }

      .st1 {
        fill: #b1b1b3;
      }

      .st2 {
        fill: #f46120;
      }

      .st3 {
        fill: #fff;
      }

      .st4 {
        fill: #bfbfc1;
      }

      .st5 {
        fill: #fef5f0;
      }

      .st6 {
        fill: #f45d1a;
      }

      .st7 {
        fill: #e6d4b6;
      }

      .st8 {
        fill: #a08b80;
      }

      .st9 {
        fill: #f45c1a;
      }

      .st10 {
        fill: #efefef;
      }

      .st11 {
        fill: #f6c290;
      }

      .st12 {
        fill: #f8f1e6;
      }

      .st13 {
        fill: #4b99bf;
      }

      .st14 {
        fill: #fefefe;
      }

      .st15 {
        fill: #e1b183;
      }

      .st16 {
        fill: #f45c19;
      }

      .st17 {
        fill: #f45d1b;
      }
    </style>
  </defs>
  <path class="st4" d="M400,503.46c-2.92-.04-5.84-.1-8.76-.1-27.27,0-54.55.02-81.82.05-61.25.07-122.5.15-184.14.14-1.43.05-2.47.18-3.51.32-.55-.08-1.11-.22-1.66-.22-16.29,0-32.57.01-49.23-.03-1.26.17-2.14.39-3.02.62-1.08-.19-2.16-.54-3.23-.54-16.29-.04-32.59.02-48.88-.12-1.36-.01-2.71-1.29-4.32-2.22-.94-1.09-1.62-1.93-2.31-2.78-.5-.78-1-1.56-1.39-2.5.25-.78.39-1.4.53-2.02,0-14.73,0-29.47.03-44.2,0-1.7.12-3.39.27-5.54.92-4.29,1.76-8.14,2.6-11.98.23-.8.46-1.6.73-2.82.77-3.49,1.49-6.57,2.21-9.64.19-1.35.38-2.69.8-4.38.65-2.54,1.08-4.75,1.5-6.96,0-.25,0-.49.21-1.03.44-1.55.67-2.81.91-4.07.24-1,.49-2,.7-3.4.14-1.21.31-2.01.48-2.81.19-.27.39-.54.57-1.21.22-1.1.49-1.78.68-2.49,2.27-8.49,4.45-17.01,6.82-25.48,1.26-4.5,2.83-8.9,4.25-13.35.05-.16.12-.31.44-.68.44-1.05.65-1.87.85-2.69.23-.24.46-.48.86-1.01.74-1.57,1.31-2.84,1.88-4.12,0,0,.1-.2.28-.4,3.53-6.85,8.61-11.88,14.73-16.05,4.4-2.99,8.55-6.35,12.81-9.54,1.08-.63,2.16-1.26,3.54-2.08,1.3-.76,2.3-1.34,3.3-1.93,6.86-4.01,13.73-8.02,20.59-12.03,0,0,.13-.08.34-.24,3.35-1.86,6.49-3.57,9.63-5.27.34-.07.68-.15,1.27-.42.88-.56,1.5-.92,2.13-1.29.44-.19.88-.37,1.7-.64,4.78-2.34,9.18-4.6,13.57-6.86.53-.22,1.06-.44,1.86-.84.89-.56,1.51-.92,2.14-1.29.34-.08.68-.15,1.29-.42,3.02-1.54,5.77-2.89,8.52-4.24,1.02-.4,2.04-.79,3.32-1.4.52-.38.78-.56,1.03-.74,5.91-2.61,11.81-5.23,17.73-7.83,2.55-1.12,5.13-2.17,7.99-3.37,3.56,25.67,7.06,50.84,10.41,74.99,11.83-11.4,24.07-23.21,36.57-35.17,1.08.6,1.95,1.32,2.72,2.13,10.53,11.06,21.05,22.14,31.58,33.21.59.62,1.24,1.19,2.14,2.06,3.35-26.13,6.63-51.68,9.94-77.52,9.81,4.45,19.3,8.76,28.92,13.22,1.33.69,2.54,1.23,3.88,1.91,7.45,3.64,14.76,7.14,22.08,10.63.19.13.38.26.84.55.61.31.95.45,1.28.63,10.63,5.77,21.26,11.54,31.89,17.31.26.2.53.4,1.04.83,5.48,3.5,10.71,6.79,15.94,10.07.45.34.91.69,1.62,1.26,4.73,3.71,9.2,7.19,13.67,10.66.46.53.91,1.06,1.59,1.83.93,1.09,1.64,1.93,2.35,2.77.24.48.49.96.93,1.72,1.11,1.85,2.03,3.42,2.95,4.99,1.01,2.5,2.02,4.99,3.26,7.83,1.5,3.85,2.77,7.36,4.04,10.88.18.63.36,1.26.65,2.27,1.25,4.2,2.4,8.01,3.54,11.83.18.99.37,1.98.61,3.4,1.09,4.46,2.13,8.49,3.17,12.52.46,2.35.91,4.69,1.56,7.44,1.21,5.33,2.23,10.25,3.25,15.17.16.81.32,1.62.52,2.85.8,4.06,1.56,7.69,2.31,11.32.16.81.32,1.61.54,2.84.72,2.94,1.39,5.45,2.06,7.97.07.67.13,1.33.35,2.4.21,1.72.27,3.04.32,4.36-.04,13.66-.07,27.31-.13,40.97,0,1.11-.2,2.22-.35,3.78-1.44,2.55-2.84,4.65-4.23,6.75-.63.25-1.26.49-2.25.93-1.69.32-3.03.44-4.36.56Z"/>
  <path class="st6" d="M845.94,175.74c-40.23,0-80.46,0-121.18-.01-1.9.12-4.08-.8-3.4,2.14-.04.56-.12,1.12-.12,1.69,0,49.13,0,98.27.02,147.86-.16,1.1-.33,1.73-.5,2.36-15.13-.02-30.25-.04-45.88-.06-1.64-.06-2.77-.12-3.9-.17,0-50.39,0-100.77.01-151.67.04-2.23.08-3.95.13-5.67.07-7.55.15-15.09.19-22.64.03-6.61,0-13.22.05-20.33,0-1.34-.04-2.18-.09-3.02.37-.52.65-1.33,1.15-1.49.77-.26,1.68-.08,2.53-.08,116.92,0,233.84-.01,351.26-.02,1.48-.02,2.45-.03,3.42-.05,2.5.35,4.99.69,7.95,1.09,6.66.78,12.13,3.46,17.52,6.39.46.34.92.68,1.62,1.26,2.09,1.81,3.92,3.38,5.76,4.96.27.34.55.69,1.05,1.27,2.24,2.99,4.25,5.74,6.26,8.48.28.67.56,1.34,1.01,2.3.6,1.25,1.01,2.21,1.43,3.18-.1.2-.07.37.27.77,1.34,4.64,2.52,9.02,3.69,13.4.33,3.45.95,6.9.95,10.34.07,50.03.05,100.05.04,150.56-1.32.74-2.62.99-3.92,1.24-14.75-.03-29.5-.06-44.72-.1-.78-.75-1.09-1.49-1.39-2.24.04-.56.12-1.12.12-1.69,0-47.24,0-94.49-.02-142.2-.17-3.62-1.15-6.24-4.42-7.41-.91-.16-1.83-.46-2.74-.46-39.63-.02-79.26-.02-118.9-.02-.55,0-1.1.05-2.04.09,0,50.48,0,100.82,0,151.65,0,3.72-2.64,1.58-3.84,2.37-14.37-.03-28.74-.06-43.62-.09-3.54.38-2.03-2.23-2.72-3.39.07-.75.21-1.49.21-2.24,0-48.16,0-96.31.06-144.96.06-1.45.06-2.41.06-3.59-1.39.08-2.38.13-3.36.19Z"/>
  <path class="st9" d="M1276.13,329.82c-.94-.04-1.88-.1-2.82-.1-41.51,0-83.01-.12-124.52.09-8.47.04-16.58-1.29-25.07-3.5-6.69-2.73-12.4-6.33-17.57-10.78-.63-.7-1.26-1.4-2.12-2.35-2.22-3.36-4.2-6.46-6.18-9.56-.29-.86-.58-1.72-1.06-2.92-.4-.84-.66-1.32-.81-1.84-1.01-3.49-1.99-6.98-2.98-10.47.08-.61.15-1.22.2-2.28-.1-1.24-.17-2.03-.25-2.82-.01-34.49-.02-68.98-.03-103.47,0-1.6.02-3.2.07-5.32.02-2.24.02-3.96.01-5.68.24-.44.48-.88.76-1.73.02-1.01,0-1.61-.04-2.22.21-.27.42-.53.61-1.2.91-3.2,1.72-6.04,2.76-8.78,2.78-7.32,6.78-13.83,12.79-18.99,1.46-1.25,2.84-2.59,4.26-3.88,1.25-.62,2.5-1.24,4.02-2.06.91-.51,1.56-.81,2.21-1.11,1.06-.33,2.12-.66,3.49-1.19,1.88-.67,3.44-1.15,5-1.63,1.17-.19,2.35-.38,3.95-.65,1.97-.29,3.51-.5,5.05-.71.79.02,1.58.03,2.84.04,1.44-.05,2.42-.1,3.39-.14,1.23.04,2.45.1,3.67.1,47.78,0,95.57,0,143.35,0,8.11,0,16.07.9,23.58,4.29,13.55,6.12,21.27,17.06,25.43,30.87,2.2,7.32,2.84,14.86,2.82,22.49-.08,22.29-.03,44.57-.03,66.86v3.54c-66.39,0-132.63,0-199.29.02-.5.18-.58.35-.66.52-.03,6.32-.16,12.64-.07,18.97.05,3.88,2.37,6.06,6.28,6.08,9.06.05,18.13.02,27.19.02,33.89,0,67.79,0,101.68,0h3.66c0,17.12,0,33.98-.27,51.11-1.95.31-3.63.35-5.31.39M1143.5,178.97c-.32,7.39-.65,14.79-.97,22.29h150.48c0-5.96.01-11.71,0-17.46-.02-5.78-2.32-8.09-8.05-8.09-20.3,0-40.61,0-60.91,0-24.46,0-48.92,0-73.38-.01-2.75,0-5.3.32-7.16,3.28Z"/>
  <path class="st16" d="M515.61,329.81c-14.94-.03-29.88-.06-45.31-.09-1.63,0-2.76,0-3.92-.27-.05-1.39-.06-2.53-.06-3.66,0-71.05,0-142.1,0-213.15,0-.85.2-1.77-.08-2.52-.18-.47-1.06-.68-1.63-1.01-1.12-.07-2.25-.2-3.37-.2-40.84-.01-81.67,0-122.51,0-1.39,0-2.79,0-4.52,0,.47-2.26,1.17-4.1,1.18-5.94.09-13.39.04-26.78.14-40.62,1.35-.53,2.6-.62,3.85-.71,1.23.04,2.45.1,3.67.1,167.91,0,335.82,0,503.73,0,9.26,0,18.27,1.19,26.79,5.06,13.5,6.14,20.54,17.27,23.95,31.11.85,3.42,1.06,7,1.62,10.92h-382.97c0,72.76,0,145.16,0,218.04-.19,1.3-.38,2.12-.56,2.94Z"/>
  <path class="st10" d="M1012.14,406.26c.12.46.24.91.4,1.78.13,1.76.23,3.11.33,4.45-.05,10.8-.08,21.6-.14,32.4-.02,3.57-.08,7.14-.16,11.2-.85,4.67-1.66,8.86-2.48,13.04-.72,2.03-1.44,4.06-2.36,6.43-1.17,2.4-2.13,4.47-3.1,6.54-.57.8-1.13,1.6-1.88,2.68-2.51,2.89-4.83,5.5-7.16,8.11-.34.27-.69.53-1.28,1.02-2.03,1.46-3.81,2.7-5.59,3.93-.67.29-1.35.58-2.34,1.06-3.2,1.3-6.08,2.4-8.96,3.5-9.75,2.15-19.66,1.38-29.5,1.39-54.11.06-108.22,0-162.33.06-9.27.01-18.06-1.82-26.84-5.79-1.87-.98-3.34-1.85-4.82-2.72,0,0-.15-.13-.31-.33-2.71-2.16-5.26-4.13-7.81-6.09-.26-.34-.52-.68-.96-1.29-4.43-5.12-6.88-10.95-9.1-16.89,0,0-.04-.26-.08-.58-.44-1.32-.84-2.32-1.24-3.32-.26-.75-.42-1.55-.81-2.22-.44-.77-1.2-1.41.1-2.07.16-.08.28-.62.18-.77-2.44-3.54-.26-7.26-.34-10.87-.3-13.74-.26-27.49-.3-41.24,0-.79.36-1.59.6-2.85.18-2.02.31-3.57.45-5.11.18-.44.36-.89.64-1.74.27-1.57.44-2.74.62-3.91.19-.61.38-1.22.75-2.11.21-.62.24-.97.27-1.31.56-1.19,1.11-2.38,1.8-3.94,1.43-2.89,2.72-5.41,4.02-7.92.21-.21.42-.41.76-.88.6-1.01,1.08-1.76,1.56-2.5.19,0,.33-.1.6-.49,1.03-1.29,1.86-2.36,2.85-3.5.62-.59,1.07-1.11,1.71-1.7,1.01-.81,1.85-1.54,2.68-2.27.19,0,.35-.08.71-.38,1.62-1.1,3.01-2.06,4.39-3.01.33-.07.65-.13,1.25-.39,4.86-1.65,9.46-3.11,14.05-4.57,5.74-.23,11.47-.66,17.21-.66,56.25-.05,112.49-.02,168.74-.07,1.43,0,2.85-.69,4.28-1,.45-.1,1.1-.2,1.37.03,2.18,1.87,4.51,1.06,6.87.57.47-.1,1.04.22,1.54.4,1.55.56,3.08,1.15,5,1.85,1.79.57,3.19,1.03,4.6,1.48,1.74.81,3.47,1.62,5.5,2.62.81.45,1.32.7,1.82.95.46.34.92.68,1.63,1.24,12.99,9.51,18.65,22.64,20.61,37.77M783.47,445.54c.22,5.42,2.07,7.23,7.48,7.23,52.02,0,104.05,0,156.07,0,3.02,0,6.04.06,9.06-.02,4.46-.12,6.7-2.44,6.72-6.91.03-8.97.03-17.94,0-26.91-.01-5.07-2.12-7.14-7.27-7.14-54.95,0-109.9,0-164.86,0-5.25,0-7.18,1.9-7.2,7.14-.03,8.69-.01,17.37-.01,26.6Z"/>
  <path class="st10" d="M1296.54,453.84c0-15.29-.63-30.33.23-45.29.6-10.38,4.22-20.26,10.68-28.8,7.63-10.09,18.01-14.96,30.36-15.96,4.88-.4,9.79-.48,14.69-.48,43.15-.04,86.31-.02,129.46-.02,1.12,0,2.24,0,3.61,0v-84.76h47.21v225.13c-1.06,0-1.98,0-2.9,0-61.76,0-123.51-.04-185.27.04-10.63.01-20.42-2.15-29.2-8.46-6.46-4.64-10.56-10.89-13.75-17.97-3.32-7.38-4.92-15.1-5.12-23.44M1346.92,414.14c-.97,1.54-2.75,3.07-2.79,4.63-.24,10-.16,20.01-.04,30.02.03,2.45,1.68,3.96,4.05,4.44,1.28.26,2.63.29,3.94.29,43.44.01,86.87.01,130.31.01,1,0,2,0,3.03,0v-39.92c-.87-.04-1.52-.11-2.17-.11-44.19,0-88.38,0-132.57.01-1.11,0-2.23.26-3.75.63Z"/>
  <path class="st11" d="M111.47,147.28c.03-1.34.05-2.69.08-4.52,0-1.27,0-2.06-.01-2.85.2-1.36.39-2.72.65-4.49,1.16-2.54,2.26-4.66,3.36-6.79.21-.04.42-.08.87.09.43,1.14.61,2.06.82,2.98,2.25,9.82,4.47,19.65,6.81,29.45.19.78,1.15,1.95,1.78,1.97,3.06.06,6.13-.22,9.24-.38-.1-.61-.09-.81-.17-.97-.67-1.35-1.33-2.71-2.03-4.05-5.92-11.21-8.81-23.21-7.52-35.76,1.59-15.45,5.87-30.32,12.06-44.59,3.47-8.01,7.62-15.61,14.01-21.75,6.74-6.47,12.19-7.34,20.51-3.32,1.44.7,2.85,1.47,4.27,2.22,6.41,3.42,12.73,7.02,19.24,10.21,5,2.45,10.33,4.61,16.04,3.14,4.07-1.05,8.13-2.52,11.84-4.48,6.66-3.53,13.12-7.46,19.54-11.42,7.02-4.33,13.75-3.88,20.32.77,2.07,1.47,4.1,3.05,5.93,4.8,5.79,5.53,10.18,12.13,13.96,19.14,6.58,12.2,11.19,25.13,13.63,38.79,2.52,14.13-2.58,26.92-7.18,39.51,0-4.29.03-8.31.26-12.33.94-.64,1.67-1.28,2.41-1.93-.87-.46-1.75-.92-2.65-1.65-.24-5.49.99-10.75-.42-15.98h-3.74c0,2,0,3.77-.25,5.53-.91-.02-1.59-.14-2.23-.03-2.83.5-3.94-.65-4.81-3.45-5.2-16.7-22.41-26.61-39.52-22.49-13.81,3.33-22.68,12.28-25.47,26.22-2.84,14.2,2.03,26.05,13.91,34.27,11.79,8.15,24.35,8.34,36.73,1,8.08-4.8,12.98-12.13,15.36-21.52,2.11,0,4.16,0,6.27.27.06,4.42.06,8.58.08,12.73.03,5.37.03,10.73.13,16.1.06,3.1.37,6.19.43,9.29.08,4.11.08,8.22-.01,12.33-.07,3.36-.33,6.72-.66,10.2-.23.61-.3,1.1-.36,1.57,0-.02.05-.01-.13.05-2.11,2.73-3.89,5.52-5.99,8.04-6.86,8.23-15.05,15.03-23.56,21.46-1.48,1.12-2.21,2.3-2.15,4.24.15,4.52.13,9.06,0,13.58-.04,1.2-.49,2.61-1.22,3.54-12.18,15.46-24.41,30.88-36.7,46.26-1.72,2.15-3.77,4.03-5.66,6.04-8.67-10.87-17.33-21.74-26.01-32.61-5.28-6.61-10.62-13.17-15.84-19.83-.68-.87-1.1-2.17-1.13-3.29-.13-4.89-.06-9.79-.08-15.15-.76-1.1-1.51-1.74-2.26-2.38,0,0-.16-.16-.34-.37-4.33-3.59-8.49-6.98-12.64-10.37-.65-.7-1.3-1.41-2.19-2.37-1.89-1.87-3.53-3.49-5.18-5.11-.05-.18-.15-.34-.49-.62-.32-.28-.47-.36-.64-.4-.46-.52-.93-1.03-1.63-1.8-2.51-4.03-4.91-7.74-6.98-11.63-1.16-2.18-1.77-4.66-2.63-7-.22-.79-.45-1.59-.7-2.8-1.34-5.48-2.61-10.55-3.99-15.59-.48-1.77-.72-4.12-1.95-5.07-5.2-4.03-8.39-9.31-10.57-15.31-1.11-3.06-1.9-6.23-2.84-9.35M250.56,238.55c-8.07,5.69-16.3,11.06-25.23,15.4-9.86,4.8-19.52,5.14-29.16-.1-8.07-4.39-15.98-9.08-23.97-13.63-.77-.44-1.61-.75-2.96-1.38.37.97.41,1.28.57,1.47,7.34,8.38,15.34,15.96,25.13,21.52,9.64,5.48,19.32,6.28,29.27,1.08,7.85-4.1,14.42-9.86,20.44-16.24,2.35-2.49,4.21-5.43,6.46-8.23-.05.02-.11.04-.56.1M170.61,222.69c5.07-.47,9.61-2.59,13.31-5.79,7.78-6.72,16.99-10.62,26.24-14.25,2.06.97,4.09,2.28,6.31,2.92,6.12,1.77,11.15,5.28,16.26,8.92,4.24,3.03,8.9,5.81,13.78,7.54,8.16,2.89,18.77-2.26,22.43-10.07,2.59-5.52-1.77-11.91-7.79-11.41-2.88.24-4.37,2.56-3.44,5.54.2-.23.46-.4.53-.62.72-2.3,2.07-3.59,4.63-2.88,2.76.77,4.23,2.79,3.99,5.4-.3,3.27-3.15,5.96-6.67,6.19-4.85.32-9.01-1.36-11.98-5.15-2.2-2.8-3.81-6.05-5.79-9.03-1.93-2.89-3.67-6.01-6.07-8.47-7.64-7.84-15.39-9-25.61-4.41-.57.26-1.48-.18-2.22-.38-3.23-.85-6.5-2.62-9.67-2.43-9.21.54-15.62,5.88-20.24,13.61-2.17,3.64-4.17,7.42-6.68,10.81-2.93,3.96-7.15,5.73-12.13,5.45-3.43-.19-6.09-2.5-6.78-5.81-.52-2.52.87-4.69,3.58-5.63,2.58-.89,4.2.04,4.99,2.59.11.36.23.72.34,1.08.93-4.43-1.12-6.46-4.89-5.8-5.85,1.01-8.84,7.04-5.63,12.04,4.31,6.69,10.35,10.62,19.2,10.04M167.93,237.72s-.04-.07,0,0Z"/>
  <path class="st10" d="M721.36,455c-.04,15.01-.08,30.03-.12,45.04,0,1.11,0,2.22,0,3.63h-3.6c-64.89,0-129.77-.04-194.66.05-9.28.01-18.44-.23-27.59-3.62-3.09-1.6-5.87-2.98-8.65-4.36-.25-.18-.49-.36-.99-.71-1.06-.78-1.93-1.31-2.64-2.01-2.77-2.69-5.48-5.42-8.22-8.14-.34-.6-.69-1.19-1.12-2.13-.67-1.04-1.24-1.74-1.82-2.44-.03-.25-.06-.5-.29-1.06-.76-1.5-1.32-2.69-1.88-3.88-.58-2.31-1.17-4.63-2.02-7.28-.3-1-.34-1.66-.37-2.33-.57-1.59-1.17-3.18-1.69-4.79-.11-.34-.01-.77.06-1.15.24-1.34.73-2.68.73-4.03.02-36.04-.02-72.08-.03-108.13,0-.64.1-1.28.17-2.11,16.61,0,33.1,0,49.82.25.27.48.31.71.35.94-.04.56-.12,1.12-.12,1.69,0,32.32,0,64.64.01,97.41.04.7.07.95.05,1.43,0,.83.06,1.44.11,2.24,1.29,1.36,2.58,2.53,3.87,3.7.93.1,1.87.29,2.8.29,65.2,0,130.4,0,196.03-.01.89.5,1.36,1,1.82,1.5Z"/>
  <path class="st10" d="M1065.88,366.51c2.53-.71,5.01-1.69,7.59-2.06,3.37-.48,6.8-.51,10.21-.69,1.79-.09,3.58-.11,5.38-.11,62.75-.01,125.5-.02,188.74-.03,1.28-.04,2.08-.07,2.87-.11.36.55,1.02,1.1,1.02,1.65.06,15.95.04,31.91.04,48.32h-3.65c-63.73,0-127.46,0-191.2,0-1.04,0-2.08-.02-3.11.04-4.63.28-6.59,2.3-6.59,6.88-.01,26.63,0,53.25,0,79.88v3.37c-1.25,0-2.26,0-3.26,0-15.29.05-30.57.11-45.86.12-.26,0-.52-.48-.76-1.19-.02-1.64-.06-2.82-.11-4.01.01-27.99.02-55.98.04-84.43.02-2.18.03-3.91.05-5.63.25-1.93.51-3.85.76-6.21.97-3.3,1.95-6.16,2.92-9.02.49-.88.98-1.76,1.57-2.96,1.77-2.83,3.43-5.33,5.1-7.83,0,0-.06-.03.13-.08,1.01-.94,1.83-1.84,2.65-2.74.72-.63,1.43-1.26,2.42-2.08,2.54-1.77,4.8-3.36,7.06-4.95.19-.02.37-.04.84-.21,2.23-1.09,4.17-2.02,6.11-2.96,2.03-.63,4.07-1.26,6.43-2.05,1.09-.41,1.85-.67,2.61-.92Z"/>
  <path class="st8" d="M289.53,155.24c4.59-12.86,9.69-25.65,7.16-39.78-2.44-13.66-7.05-26.59-13.63-38.79-3.78-7-8.17-13.6-13.96-19.14-1.83-1.75-3.86-3.33-5.93-4.8-6.58-4.65-13.3-5.11-20.32-.77-6.42,3.96-12.88,7.89-19.54,11.42-3.71,1.96-7.77,3.43-11.84,4.48-5.71,1.48-11.03-.68-16.04-3.14-6.52-3.19-12.84-6.79-19.24-10.21-1.41-.76-2.82-1.53-4.27-2.22-8.33-4.01-13.77-3.14-20.51,3.32-6.39,6.13-10.54,13.74-14.01,21.75-6.19,14.28-10.48,29.14-12.06,44.59-1.29,12.56,1.61,24.56,7.52,35.76.7,1.33,1.37,2.69,2.03,4.05.08.16.07.36.17.97-3.11.16-6.18.44-9.24.38-.62-.01-1.59-1.18-1.78-1.97-2.34-9.8-4.56-19.63-6.81-29.45-.21-.92-.39-1.84-.65-3-.13-.67-.19-1.11-.33-1.93-.26-1.36-.43-2.34-.61-3.32-.63-3.4-1.27-6.79-1.91-10.18-.28-3.26-.51-6.52-.84-9.77-.28-2.71-.7-5.4-.98-8.11-.03-.3.49-.65.75-1.33-.03-.45-.05-.54-.08-.64.02-3.97.03-7.94.07-12.37,0-.71-.02-.97-.05-1.23-.16-1.08-1.64-2.12.06-3.3.38-.26.34-1.47.14-2.14-.79-2.72-.13-5.23,1-8.16.3-1.8.48-3.16.66-4.52.31-1.37.62-2.74,1.02-4.54.28-1.41.48-2.39.67-3.37.24-.41.49-.82.87-1.54.18-.64.23-.98.28-1.31.17-.62.34-1.23.72-2.13.57-1.26.93-2.25,1.28-3.23.08-.09.16-.18.4-.54,4.64-9.75,11.45-16.81,21.34-20.67.5-.05,1-.1,1.84-.32,2.54-.35,4.39-1.13,5.57-3.12.2-.01.35-.1.67-.48,2.74-2.05,5.26-3.88,7.79-5.72.63-.21,1.26-.43,2.16-.88.66-.44,1.06-.63,1.46-.83.23-.03.46-.05,1.03-.25,4.16-1.48,8-2.8,11.83-4.11.59-.08,1.18-.15,2.2-.29,2.74-.61,5.06-1.16,7.37-1.7,2.14-.26,4.28-.52,6.86-.86,2.73-.32,5.02-.56,7.3-.8.61,0,1.21.02,2.3.02,2.58-.04,4.67-.07,6.77-.1.61.03,1.21.05,2.28.08,1.25-.03,2.04-.05,2.82-.08,1.16.03,2.32.05,3.97.09,1.81.08,3.13.15,4.6.36.83.13,1.52.12,2.43.16,1.02.03,1.81.02,2.6.02,2.3.38,4.6.77,7.37,1.16,3.14.39,5.82.77,8.5,1.15.62.19,1.24.39,2.25.68,7.25,2.27,14.12,4.43,20.98,6.6,1.19.57,2.38,1.13,3.93,1.83,4.21,2.75,8.05,5.36,11.9,7.98.63.21,1.26.43,2.27.7,2.76,1.03,5.36,1.65,7.44,3.04,4.17,2.81,6.5,7.2,8.35,11.7,1.79,4.36,3.13,8.9,4.67,13.37.17.91.34,1.81.54,3.02.03.45.05.6.1.74.34,1.61.68,3.23,1.03,5.31.61,4.47,1.2,8.47,1.79,12.48.32,3.44.65,6.87.99,10.8.06,2.58.1,4.68.15,6.77-.03,5.31-.05,10.62-.08,16.39.03.89.05,1.32.08,1.74-.34,4.48-.68,8.96-1.03,13.44-.05.65-.12,1.3-.2,2.41-.19,2.02-.37,3.56-.64,5.32-1.84,8.45-3.62,16.68-5.32,24.93-.31,1.51-.9,2.23-2.58,2.24-2.62,0-5.24.31-7.89.23,0-1.61,0-2.97.03-4.33Z"/>
  <path class="st17" d="M570.58,124.54c14.81.04,29.63.07,44.44.11,1.11,0,2.23,0,3.49,0,.08.75.19,1.29.19,1.82,0,67.57-.01,135.13-.28,202.96-1.2.31-2.13.35-3.07.39-14.94-.03-29.87-.06-45.29-.09-.89-.94-1.3-1.88-1.72-2.81.05-.56.14-1.12.14-1.68,0-66.14-.01-132.27-.02-198.87.71-.92,1.41-1.37,2.12-1.82Z"/>
  <path class="st14" d="M209.59,308.47c1.87-2.17,3.92-4.05,5.64-6.2,12.29-15.38,24.52-30.8,36.7-46.26.74-.94,1.18-2.34,1.22-3.54.14-4.52.16-9.06,0-13.58-.06-1.94.67-3.12,2.15-4.24,8.51-6.43,16.7-13.23,23.56-21.46,2.1-2.52,3.88-5.31,5.95-7.8.15.75.14,1.31.17,1.88.22,4.56.91,9.15.57,13.66-.59,7.96,1.62,15.95-.46,23.85-.07.25.08.56.09.84.13,4.49.31,8.98.35,13.48.02,2.25-.62,4.56-.26,6.73.92,5.47.86,10.86-.34,16.26-9.49-4.31-18.98-8.62-28.79-13.07-3.32,25.85-6.59,51.39-9.94,77.52-.91-.87-1.55-1.44-2.14-2.06-10.53-11.07-21.04-22.15-31.58-33.21-.77-.81-1.64-1.52-2.65-2.3-.2-.12-.21-.23-.25-.5Z"/>
  <path class="st2" d="M285.07,282.24c1.08-5.55,1.14-10.93.21-16.41-.37-2.17.28-4.48.26-6.73-.04-4.49-.22-8.99-.35-13.48,0-.28-.16-.58-.09-.84,2.08-7.91-.13-15.9.46-23.85.33-4.52-.35-9.11-.57-13.66-.03-.56-.01-1.13.02-1.94.04-.24-.01-.25.15-.33.22-.58.29-1.08.35-1.59.18-3.36.43-6.72.51-10.08.09-4.11.09-8.22.01-12.33-.06-3.1-.37-6.19-.43-9.29-.1-5.36-.1-10.73-.13-16.1-.02-4.16-.02-8.31-.04-12.97-.03-1.44-.05-2.38-.02-3.58.02-2.55,0-4.84.02-7.36.02-1.19,0-2.14-.04-3.1v-5.53h3.74c1.41,5.23.18,10.49.37,16.21.02,1.44.05,2.39.08,3.34-.02,4.02-.05,8.05-.06,12.34,0,1.63-.02,2.99-.03,4.86-.3,10.72-1.34,20.92-.46,31.36-.22,1.37-.39,2.53-.56,3.69-.03,1.53-.06,3.06-.08,5.07.22,1.84.43,3.2.61,4.78-.01.83.01,1.44,0,2.28-.12,1.38-.2,2.51-.28,3.65-.11.29-.22.59-.32,1.26.01.8.02,1.23.03,1.65-1.12,1.97-.54,3.59.51,4.46,0,2.34,0,4.1.01,6.33-.15,2.95-.32,5.43-.48,7.9-.12,1.4-.24,2.79-.26,4.61.35,2.9.59,5.38.84,7.86.11,1.78.22,3.56.33,5.34.01.18.11.47.04.53-3.97,3.08.91,6.97-.93,10.26-.12.21.23.68.4,1.48-.11,2.56-.26,4.66-.41,6.76-.07,2.31-.13,4.63-.15,7.4.2,2.8.35,5.15.5,7.49-1.21-.54-2.41-1.07-3.74-1.76Z"/>
  <path class="st11" d="M289.07,190.97c-.93-10.23.1-20.42.44-30.89,2.64-.43,5.26-.73,7.88-.74,1.68,0,2.26-.73,2.58-2.24,1.7-8.25,3.48-16.49,5.48-24.81.73,1.54,1.22,3.15,1.7,4.77.15.45.3.9.47,1.79.01,3.1,0,5.76,0,8.42,0,0-.09.25-.25.55-1.19,3.96-2.22,7.62-3.25,11.28-.35.64-.7,1.29-1.24,2.23-1.59,2.26-2.8,4.41-4.46,6.13-3.02,3.11-5.77,6.24-5.67,10.92-.16.62-.33,1.25-.66,2.22-.4,1.59-.63,2.83-.86,4.07-.06.2-.11.39-.31.91-.71,2.01-1.28,3.7-1.86,5.38Z"/>
  <path class="st1" d="M121.87,504.04c.93-.32,1.97-.45,3.15-.43-.92.31-1.98.46-3.15.43Z"/>
  <path class="st3" d="M164.26,235.29c.75.42,1.5,1.06,2.23,1.9-.75-.43-1.49-1.06-2.23-1.9Z"/>
  <path class="st1" d="M68.07,504.29c.66-.29,1.55-.51,2.55-.59-.7.32-1.51.48-2.55.59Z"/>
  <path class="st3" d="M288.6,213.55c-.19-.4-.2-.82-.18-1.46.15.34.25.88.18,1.46Z"/>
  <path class="st3" d="M736.41,392.68c.14.32.11.67-.1,1.08-.14-.31-.11-.68.1-1.08Z"/>
  <path class="st5" d="M1143.08,253.2c-.03-.12.05-.29.28-.43.09.18-.02.3-.28.43Z"/>
  <path class="st8" d="M170.35,222.71c-8.59.56-14.63-3.37-18.94-10.06-3.22-5-.23-11.02,5.63-12.04,3.77-.65,5.82,1.37,4.89,5.8-.11-.36-.23-.72-.34-1.08-.79-2.54-2.41-3.47-4.99-2.59-2.71.93-4.1,3.11-3.58,5.63.69,3.31,3.34,5.61,6.78,5.81,4.98.28,9.2-1.49,12.13-5.45,2.51-3.39,4.51-7.17,6.68-10.81,4.61-7.73,11.03-13.07,20.24-13.61,3.16-.19,6.44,1.58,9.67,2.43.73.19,1.65.63,2.22.38,10.21-4.59,17.96-3.42,25.61,4.41,2.4,2.46,4.14,5.58,6.07,8.47,1.98,2.98,3.59,6.23,5.79,9.03,2.97,3.79,7.13,5.47,11.98,5.15,3.53-.23,6.37-2.93,6.67-6.19.24-2.61-1.23-4.62-3.99-5.4-2.56-.72-3.91.58-4.63,2.88-.07.22-.33.39-.53.62-.93-2.97.55-5.3,3.44-5.54,6.02-.5,10.38,5.89,7.79,11.41-3.67,7.81-14.27,12.96-22.43,10.07-4.88-1.73-9.54-4.51-13.78-7.54-5.11-3.64-10.14-7.15-16.26-8.92-2.22-.64-4.25-1.95-6.31-2.92-9.25,3.63-18.46,7.53-26.24,14.25-3.7,3.2-8.24,5.33-13.57,5.81Z"/>
  <path class="st13" d="M285.13,128.62c.27.96.3,1.91.05,3.14-.48,1.92-.82,3.56-.82,5.21,0,.79.64,1.58.99,2.37.02.94.04,1.88.02,3.05-2.1.23-4.16.23-6.26.23-2.38,9.39-7.28,16.72-15.36,21.52-12.37,7.34-24.94,7.16-36.73-1-11.89-8.22-16.76-20.07-13.91-34.27,2.79-13.94,11.66-22.89,25.47-26.22,17.11-4.12,34.32,5.79,39.52,22.49.87,2.8,1.98,3.95,4.81,3.45.64-.11,1.32.01,2.23.03M275.29,141.15c.19-1.59.5-3.17.54-4.76.47-19.43-16.86-33.79-36.07-29.92-15.9,3.2-26.12,19.22-22.7,35.58,3.27,15.65,19.95,26.19,35.53,22.37,12.14-2.98,19.48-10.83,22.7-23.26Z"/>
  <path class="st15" d="M250.96,238.51c-2.08,2.74-3.95,5.68-6.3,8.17-6.02,6.38-12.59,12.14-20.44,16.24-9.96,5.2-19.64,4.4-29.27-1.08-9.79-5.57-17.78-13.15-25.13-21.52-.17-.19-.2-.49-.57-1.47,1.35.62,2.19.94,2.96,1.38,7.99,4.54,15.9,9.23,23.97,13.63,9.64,5.24,19.3,4.9,29.16.1,8.93-4.34,17.16-9.71,25.43-15.42.2-.02.2-.02.2-.02Z"/>
  <path class="st14" d="M285.35,203.53c.09.39.02.89-.21,1.5-.09-.4-.02-.89.21-1.5Z"/>
  <path class="st15" d="M167.91,237.68s.02.03,0,0Z"/>
  <path class="st15" d="M250.96,238.51c.05-.02.11-.04.08-.03-.08.03-.08.03-.08.03Z"/>
  <path class="st11" d="M285.4,139.08c-.4-.53-1.04-1.32-1.04-2.11,0-1.65.35-3.29.78-4.98.25,2.25.28,4.54.26,7.09Z"/>
  <path class="st7" d="M275.25,141.38c-3.18,12.2-10.52,20.04-22.66,23.02-15.58,3.83-32.26-6.72-35.53-22.37-3.42-16.36,6.8-32.38,22.7-35.58,19.21-3.87,36.54,10.49,36.07,29.92-.04,1.59-.35,3.17-.58,5M228.8,152.76c-.06-.03-.12-.05-.18-.08.07.09.15.18.26.67,4.3,5.06,10.11,7.13,16.4,7.43,11.25.54,21.39-6.9,24.51-17.81,2.34-8.15,1.1-15.77-4.72-22.51-.06-.03-.11-.06-.17-.08.07.09.15.18.22.71,3.16,8.06,3.1,15.88-1.2,23.63-4.49,8.1-15.78,13.74-24.68,11.69-3.54-.81-6.92-2.31-10.44-3.66M234.53,122.61c-.99,4.63-1.98,9.26-2.97,13.88.32.09.65.18.97.26,1.98-6.7,3.99-13.38,5.9-20.1.12-.43-.47-1.05-.72-1.59-.61.44-1.59.75-1.78,1.33-.61,1.86-.93,3.82-1.39,6.21M237.24,141.14c.43-2.28.86-4.55,1.29-6.83-.29-.07-.58-.14-.88-.21-1.71,5.35-3.49,10.67-5.05,16.06-.23.78.58,1.85,1.08,3.27.68-.97.93-1.18.99-1.43.82-3.47,1.61-6.94,2.57-10.86M231.27,138.1c.07.09.13.19.2.28-.01-.13-.03-.26-.2-.28M238.91,132.65c-.06-.09-.13-.18-.19-.27.01.13.03.25.19.27Z"/>
  <path class="st12" d="M265.13,120.63c5.76,6.57,7,14.18,4.66,22.33-3.13,10.91-13.26,18.35-24.51,17.81-6.29-.3-12.1-2.38-16.41-7.63-.01-.2,0-.22,0-.22,3.45,1.18,6.83,2.68,10.37,3.49,8.9,2.04,20.19-3.59,24.68-11.69,4.3-7.76,4.35-15.58,1.2-23.86,0-.22,0-.23,0-.23Z"/>
  <path class="st0" d="M234.54,122.37c.45-2.16.77-4.11,1.38-5.98.19-.57,1.16-.89,1.78-1.33.26.53.84,1.16.72,1.59-1.91,6.72-3.92,13.4-5.9,20.1-.32-.09-.65-.18-.97-.26.99-4.63,1.98-9.26,2.99-14.12Z"/>
  <path class="st0" d="M237.16,141.36c-.88,3.7-1.67,7.17-2.48,10.64-.06.25-.31.46-.99,1.43-.5-1.42-1.31-2.5-1.08-3.27,1.56-5.39,3.34-10.72,5.05-16.06.29.07.58.14.88.21-.43,2.28-.86,4.55-1.38,7.05Z"/>
  <path class="st0" d="M231.35,138.04c.09.07.11.21.12.34-.07-.09-.13-.19-.12-.34Z"/>
  <path class="st0" d="M238.83,132.7c-.09-.07-.1-.2-.11-.33.06.09.13.18.11.33Z"/>
  <path class="st12" d="M265.13,120.64c-.08-.09-.15-.17-.22-.26.06.03.11.06.2.17.03.09.03.09.03.09Z"/>
  <path class="st12" d="M228.85,152.95c-.08-.09-.15-.18-.23-.27.06.03.12.05.21.16.04.09.02.1.01.11Z"/>
  <polygon class="st3" points="252.88 254.28 256.1 269.4 246.15 346.92 209.51 308.7 252.88 254.28"/>
  <polygon class="st3" points="166.51 254.28 162.81 269.7 173.23 344.69 209.59 308.7 166.51 254.28"/>
</svg>