<?xml version="1.0" encoding="UTF-8"?>
<svg id="Layer_1" xmlns="http://www.w3.org/2000/svg" version="1.1" viewBox="0 0 1539.52 508.4">
  <!-- Generator: Adobe Illustrator 29.8.5, SVG Export Plug-In . SVG Version: 2.1.1 Build 2)  -->
  <defs>
    <style>
      .st0 {
        fill: #f4ecdf;
      }

      .st1 {
        fill: #b1b1b3;
      }

      .st2 {
        fill: #f46120;
      }

      .st3 {
        fill: #fff;
      }

      .st4 {
        fill: #cecece;
      }

      .st5 {
        fill: #fac4aa;
      }

      .st6 {
        fill: #fef5f0;
      }

      .st7 {
        fill: #f45d1a;
      }

      .st8 {
        fill: #e6d4b6;
      }

      .st9 {
        fill: #48494d;
      }

      .st10 {
        fill: #a08b80;
      }

      .st11 {
        fill: #fffcfb;
      }

      .st12 {
        fill: #f45c1a;
      }

      .st13 {
        fill: #efefef;
      }

      .st14 {
        fill: #f6c290;
      }

      .st15 {
        fill: #f8f1e6;
      }

      .st16 {
        fill: #4b99bf;
      }

      .st17 {
        fill: #fefefe;
      }

      .st18 {
        fill: #d4d4d4;
      }

      .st19 {
        fill: #e1b183;
      }

      .st20 {
        fill: #f45c19;
      }

      .st21 {
        fill: #f45d1b;
      }
    </style>
  </defs>
  <path class="st13" d="M400,503.46c-2.92-.04-5.84-.1-8.76-.1-27.27,0-54.55.02-81.82.05-61.25.07-122.5.15-184.14.14-1.43.05-2.47.18-3.51.32-.55-.08-1.11-.22-1.66-.22-16.29,0-32.57.01-49.23-.03-1.26.17-2.14.39-3.02.62-1.08-.19-2.16-.54-3.23-.54-16.29-.04-32.59.02-48.88-.12-1.36-.01-2.71-1.29-4.32-2.22-.94-1.09-1.62-1.93-2.31-2.78-.5-.78-1-1.56-1.39-2.5.25-.78.39-1.4.53-2.02,0-14.73,0-29.47.03-44.2,0-1.7.12-3.39.27-5.54.92-4.29,1.76-8.14,2.6-11.98.23-.8.46-1.6.73-2.82.77-3.49,1.49-6.57,2.21-9.64.19-1.35.38-2.69.8-4.38.65-2.54,1.08-4.75,1.5-6.96,0-.25,0-.49.21-1.03.44-1.55.67-2.81.91-4.07.24-1,.49-2,.7-3.4.14-1.21.31-2.01.48-2.81.19-.27.39-.54.57-1.21.22-1.1.49-1.78.68-2.49,2.27-8.49,4.45-17.01,6.82-25.48,1.26-4.5,2.83-8.9,4.25-13.35.05-.16.12-.31.44-.68.44-1.05.65-1.87.85-2.69.23-.24.46-.48.86-1.01.74-1.57,1.31-2.84,1.88-4.12,0,0,.1-.2.28-.4,3.53-6.85,8.61-11.88,14.73-16.05,4.4-2.99,8.55-6.35,12.81-9.54,1.08-.63,2.16-1.26,3.54-2.08,1.3-.76,2.3-1.34,3.3-1.93,6.86-4.01,13.73-8.02,20.59-12.03,0,0,.13-.08.34-.24,3.35-1.86,6.49-3.57,9.63-5.27.34-.07.68-.15,1.27-.42.88-.56,1.5-.92,2.13-1.29.44-.19.88-.37,1.7-.64,4.78-2.34,9.18-4.6,13.57-6.86.53-.22,1.06-.44,1.86-.84.89-.56,1.51-.92,2.14-1.29.34-.08.68-.15,1.29-.42,3.02-1.54,5.77-2.89,8.52-4.24,1.02-.4,2.04-.79,3.32-1.4.52-.38.78-.56,1.03-.74,5.91-2.61,11.81-5.23,17.73-7.83,2.55-1.12,5.13-2.17,7.99-3.37,3.56,25.67,7.06,50.84,10.41,74.99,11.83-11.4,24.07-23.21,36.57-35.17,1.08.6,1.95,1.32,2.72,2.13,10.53,11.06,21.05,22.14,31.58,33.21.59.62,1.24,1.19,2.14,2.06,3.35-26.13,6.63-51.68,9.94-77.52,9.81,4.45,19.3,8.76,28.92,13.22,1.33.69,2.54,1.23,3.88,1.91,7.45,3.64,14.76,7.14,22.08,10.63.19.13.38.26.84.55.61.31.95.45,1.28.63,10.63,5.77,21.26,11.54,31.89,17.31.26.2.53.4,1.04.83,5.48,3.5,10.71,6.79,15.94,10.07.45.34.91.69,1.62,1.26,4.73,3.71,9.2,7.19,13.67,10.66.46.53.91,1.06,1.59,1.83.93,1.09,1.64,1.93,2.35,2.77.24.48.49.96.93,1.72,1.11,1.85,2.03,3.42,2.95,4.99,1.01,2.5,2.02,4.99,3.26,7.83,1.5,3.85,2.77,7.36,4.04,10.88.18.63.36,1.26.65,2.27,1.25,4.2,2.4,8.01,3.54,11.83.18.99.37,1.98.61,3.4,1.09,4.46,2.13,8.49,3.17,12.52.46,2.35.91,4.69,1.56,7.44,1.21,5.33,2.23,10.25,3.25,15.17.16.81.32,1.62.52,2.85.8,4.06,1.56,7.69,2.31,11.32.16.81.32,1.61.54,2.84.72,2.94,1.39,5.45,2.06,7.97.07.67.13,1.33.35,2.4.21,1.72.27,3.04.32,4.36-.04,13.66-.07,27.31-.13,40.97,0,1.11-.2,2.22-.35,3.78-1.44,2.55-2.84,4.65-4.23,6.75-.63.25-1.26.49-2.25.93-1.69.32-3.03.44-4.36.56Z"/>
  <path class="st7" d="M845.94,175.74c-40.23,0-80.46,0-121.18-.01-1.9.12-4.08-.8-3.4,2.14-.04.56-.12,1.12-.12,1.69,0,49.13,0,98.27.02,147.86-.16,1.1-.33,1.73-.5,2.36-15.13-.02-30.25-.04-45.88-.06-1.64-.06-2.77-.12-3.9-.17,0-50.39,0-100.77.01-151.67.04-2.23.08-3.95.13-5.67.07-7.55.15-15.09.19-22.64.03-6.61,0-13.22.05-20.33,0-1.34-.04-2.18-.09-3.02.37-.52.65-1.33,1.15-1.49.77-.26,1.68-.08,2.53-.08,116.92,0,233.84-.01,351.26-.02,1.48-.02,2.45-.03,3.42-.05,2.5.35,4.99.69,7.95,1.09,6.66.78,12.13,3.46,17.52,6.39.46.34.92.68,1.62,1.26,2.09,1.81,3.92,3.38,5.76,4.96.27.34.55.69,1.05,1.27,2.24,2.99,4.25,5.74,6.26,8.48.28.67.56,1.34,1.01,2.3.6,1.25,1.01,2.21,1.43,3.18-.1.2-.07.37.27.77,1.34,4.64,2.52,9.02,3.69,13.4.33,3.45.95,6.9.95,10.34.07,50.03.05,100.05.04,150.56-1.32.74-2.62.99-3.92,1.24-14.75-.03-29.5-.06-44.72-.1-.78-.75-1.09-1.49-1.39-2.24.04-.56.12-1.12.12-1.69,0-47.24,0-94.49-.02-142.2-.17-3.62-1.15-6.24-4.42-7.41-.91-.16-1.83-.46-2.74-.46-39.63-.02-79.26-.02-118.9-.02-.55,0-1.1.05-2.04.09,0,50.48,0,100.82,0,151.65,0,3.72-2.64,1.58-3.84,2.37-14.37-.03-28.74-.06-43.62-.09-3.54.38-2.03-2.23-2.72-3.39.07-.75.21-1.49.21-2.24,0-48.16,0-96.31.06-144.96.06-1.45.06-2.41.06-3.59-1.39.08-2.38.13-3.36.19Z"/>
  <path class="st12" d="M1276.13,329.82c-.94-.04-1.88-.1-2.82-.1-41.51,0-83.01-.12-124.52.09-8.47.04-16.58-1.29-25.07-3.5-6.69-2.73-12.4-6.33-17.57-10.78-.63-.7-1.26-1.4-2.12-2.35-2.22-3.36-4.2-6.46-6.18-9.56-.29-.86-.58-1.72-1.06-2.92-.4-.84-.66-1.32-.81-1.84-1.01-3.49-1.99-6.98-2.98-10.47.08-.61.15-1.22.2-2.28-.1-1.24-.17-2.03-.25-2.82-.01-34.49-.02-68.98-.03-103.47,0-1.6.02-3.2.07-5.32.02-2.24.02-3.96.01-5.68.24-.44.48-.88.76-1.73.02-1.01,0-1.61-.04-2.22.21-.27.42-.53.61-1.2.91-3.2,1.72-6.04,2.76-8.78,2.78-7.32,6.78-13.83,12.79-18.99,1.46-1.25,2.84-2.59,4.26-3.88,1.25-.62,2.5-1.24,4.02-2.06.91-.51,1.56-.81,2.21-1.11,1.06-.33,2.12-.66,3.49-1.19,1.88-.67,3.44-1.15,5-1.63,1.17-.19,2.35-.38,3.95-.65,1.97-.29,3.51-.5,5.05-.71.79.02,1.58.03,2.84.04,1.44-.05,2.42-.1,3.39-.14,1.23.04,2.45.1,3.67.1,47.78,0,95.57,0,143.35,0,8.11,0,16.07.9,23.58,4.29,13.55,6.12,21.27,17.06,25.43,30.87,2.2,7.32,2.84,14.86,2.82,22.49-.08,22.29-.03,44.57-.03,66.86v3.54c-66.39,0-132.63,0-199.29.02-.5.18-.58.35-.66.52-.03,6.32-.16,12.64-.07,18.97.05,3.88,2.37,6.06,6.28,6.08,9.06.05,18.13.02,27.19.02,33.89,0,67.79,0,101.68,0h3.66c0,17.12,0,33.98-.27,51.11-1.95.31-3.63.35-5.31.39M1143.5,178.97c-.32,7.39-.65,14.79-.97,22.29h150.48c0-5.96.01-11.71,0-17.46-.02-5.78-2.32-8.09-8.05-8.09-20.3,0-40.61,0-60.91,0-24.46,0-48.92,0-73.38-.01-2.75,0-5.3.32-7.16,3.28Z"/>
  <path class="st20" d="M515.61,329.81c-14.94-.03-29.88-.06-45.31-.09-1.63,0-2.76,0-3.92-.27-.05-1.39-.06-2.53-.06-3.66,0-71.05,0-142.1,0-213.15,0-.85.2-1.77-.08-2.52-.18-.47-1.06-.68-1.63-1.01-1.12-.07-2.25-.2-3.37-.2-40.84-.01-81.67,0-122.51,0-1.39,0-2.79,0-4.52,0,.47-2.26,1.17-4.1,1.18-5.94.09-13.39.04-26.78.14-40.62,1.35-.53,2.6-.62,3.85-.71,1.23.04,2.45.1,3.67.1,167.91,0,335.82,0,503.73,0,9.26,0,18.27,1.19,26.79,5.06,13.5,6.14,20.54,17.27,23.95,31.11.85,3.42,1.06,7,1.62,10.92h-382.97c0,72.76,0,145.16,0,218.04-.19,1.3-.38,2.12-.56,2.94Z"/>
  <path class="st13" d="M1012.14,406.26c.12.46.24.91.4,1.78.13,1.76.23,3.11.33,4.45-.05,10.8-.08,21.6-.14,32.4-.02,3.57-.08,7.14-.16,11.2-.85,4.67-1.66,8.86-2.48,13.04-.72,2.03-1.44,4.06-2.36,6.43-1.17,2.4-2.13,4.47-3.1,6.54-.57.8-1.13,1.6-1.88,2.68-2.51,2.89-4.83,5.5-7.16,8.11-.34.27-.69.53-1.28,1.02-2.03,1.46-3.81,2.7-5.59,3.93-.67.29-1.35.58-2.34,1.06-3.2,1.3-6.08,2.4-8.96,3.5-9.75,2.15-19.66,1.38-29.5,1.39-54.11.06-108.22,0-162.33.06-9.27.01-18.06-1.82-26.84-5.79-1.87-.98-3.34-1.85-4.82-2.72,0,0-.15-.13-.31-.33-2.71-2.16-5.26-4.13-7.81-6.09-.26-.34-.52-.68-.96-1.29-4.43-5.12-6.88-10.95-9.1-16.89,0,0-.04-.26-.08-.58-.44-1.32-.84-2.32-1.24-3.32-.26-.75-.42-1.55-.81-2.22-.44-.77-1.2-1.41.1-2.07.16-.08.28-.62.18-.77-2.44-3.54-.26-7.26-.34-10.87-.3-13.74-.26-27.49-.3-41.24,0-.79.36-1.59.6-2.85.18-2.02.31-3.57.45-5.11.18-.44.36-.89.64-1.74.27-1.57.44-2.74.62-3.91.19-.61.38-1.22.75-2.11.21-.62.24-.97.27-1.31.56-1.19,1.11-2.38,1.8-3.94,1.43-2.89,2.72-5.41,4.02-7.92.21-.21.42-.41.76-.88.6-1.01,1.08-1.76,1.56-2.5.19,0,.33-.1.6-.49,1.03-1.29,1.86-2.36,2.85-3.5.62-.59,1.07-1.11,1.71-1.7,1.01-.81,1.85-1.54,2.68-2.27.19,0,.35-.08.71-.38,1.62-1.1,3.01-2.06,4.39-3.01.33-.07.65-.13,1.25-.39,4.86-1.65,9.46-3.11,14.05-4.57,5.74-.23,11.47-.66,17.21-.66,56.25-.05,112.49-.02,168.74-.07,1.43,0,2.85-.69,4.28-1,.45-.1,1.1-.2,1.37.03,2.18,1.87,4.51,1.06,6.87.57.47-.1,1.04.22,1.54.4,1.55.56,3.08,1.15,5,1.85,1.79.57,3.19,1.03,4.6,1.48,1.74.81,3.47,1.62,5.5,2.62.81.45,1.32.7,1.82.95.46.34.92.68,1.63,1.24,12.99,9.51,18.65,22.64,20.61,37.77M783.47,445.54c.22,5.42,2.07,7.23,7.48,7.23,52.02,0,104.05,0,156.07,0,3.02,0,6.04.06,9.06-.02,4.46-.12,6.7-2.44,6.72-6.91.03-8.97.03-17.94,0-26.91-.01-5.07-2.12-7.14-7.27-7.14-54.95,0-109.9,0-164.86,0-5.25,0-7.18,1.9-7.2,7.14-.03,8.69-.01,17.37-.01,26.6Z"/>
  <path class="st13" d="M1296.54,453.84c0-15.29-.63-30.33.23-45.29.6-10.38,4.22-20.26,10.68-28.8,7.63-10.09,18.01-14.96,30.36-15.96,4.88-.4,9.79-.48,14.69-.48,43.15-.04,86.31-.02,129.46-.02,1.12,0,2.24,0,3.61,0v-84.76h47.21v225.13c-1.06,0-1.98,0-2.9,0-61.76,0-123.51-.04-185.27.04-10.63.01-20.42-2.15-29.2-8.46-6.46-4.64-10.56-10.89-13.75-17.97-3.32-7.38-4.92-15.1-5.12-23.44M1346.92,414.14c-.97,1.54-2.75,3.07-2.79,4.63-.24,10-.16,20.01-.04,30.02.03,2.45,1.68,3.96,4.05,4.44,1.28.26,2.63.29,3.94.29,43.44.01,86.87.01,130.31.01,1,0,2,0,3.03,0v-39.92c-.87-.04-1.52-.11-2.17-.11-44.19,0-88.38,0-132.57.01-1.11,0-2.23.26-3.75.63Z"/>
  <path class="st14" d="M111.47,147.28c.03-1.34.05-2.69.08-4.52,0-1.27,0-2.06-.01-2.85.2-1.36.39-2.72.65-4.49,1.16-2.54,2.26-4.66,3.36-6.79.21-.04.42-.08.87.09.43,1.14.61,2.06.82,2.98,2.25,9.82,4.47,19.65,6.81,29.45.19.78,1.15,1.95,1.78,1.97,3.06.06,6.13-.22,9.24-.38-.1-.61-.09-.81-.17-.97-.67-1.35-1.33-2.71-2.03-4.05-5.92-11.21-8.81-23.21-7.52-35.76,1.59-15.45,5.87-30.32,12.06-44.59,3.47-8.01,7.62-15.61,14.01-21.75,6.74-6.47,12.19-7.34,20.51-3.32,1.44.7,2.85,1.47,4.27,2.22,6.41,3.42,12.73,7.02,19.24,10.21,5,2.45,10.33,4.61,16.04,3.14,4.07-1.05,8.13-2.52,11.84-4.48,6.66-3.53,13.12-7.46,19.54-11.42,7.02-4.33,13.75-3.88,20.32.77,2.07,1.47,4.1,3.05,5.93,4.8,5.79,5.53,10.18,12.13,13.96,19.14,6.58,12.2,11.19,25.13,13.63,38.79,2.52,14.13-2.58,26.92-7.18,39.51,0-4.29.03-8.31.26-12.33.94-.64,1.67-1.28,2.41-1.93-.87-.46-1.75-.92-2.65-1.65-.24-5.49.99-10.75-.42-15.98h-3.74c0,2,0,3.77-.25,5.53-.91-.02-1.59-.14-2.23-.03-2.83.5-3.94-.65-4.81-3.45-5.2-16.7-22.41-26.61-39.52-22.49-13.81,3.33-22.68,12.28-25.47,26.22-2.84,14.2,2.03,26.05,13.91,34.27,11.79,8.15,24.35,8.34,36.73,1,8.08-4.8,12.98-12.13,15.36-21.52,2.11,0,4.16,0,6.27.27.06,4.42.06,8.58.08,12.73.03,5.37.03,10.73.13,16.1.06,3.1.37,6.19.43,9.29.08,4.11.08,8.22-.01,12.33-.07,3.36-.33,6.72-.66,10.2-.23.61-.3,1.1-.36,1.57,0-.02.05-.01-.13.05-2.11,2.73-3.89,5.52-5.99,8.04-6.86,8.23-15.05,15.03-23.56,21.46-1.48,1.12-2.21,2.3-2.15,4.24.15,4.52.13,9.06,0,13.58-.04,1.2-.49,2.61-1.22,3.54-12.18,15.46-24.41,30.88-36.7,46.26-1.72,2.15-3.77,4.03-5.66,6.04-8.67-10.87-17.33-21.74-26.01-32.61-5.28-6.61-10.62-13.17-15.84-19.83-.68-.87-1.1-2.17-1.13-3.29-.13-4.89-.06-9.79-.08-15.15-.76-1.1-1.51-1.74-2.26-2.38,0,0-.16-.16-.34-.37-4.33-3.59-8.49-6.98-12.64-10.37-.65-.7-1.3-1.41-2.19-2.37-1.89-1.87-3.53-3.49-5.18-5.11-.05-.18-.15-.34-.49-.62-.32-.28-.47-.36-.64-.4-.46-.52-.93-1.03-1.63-1.8-2.51-4.03-4.91-7.74-6.98-11.63-1.16-2.18-1.77-4.66-2.63-7-.22-.79-.45-1.59-.7-2.8-1.34-5.48-2.61-10.55-3.99-15.59-.48-1.77-.72-4.12-1.95-5.07-5.2-4.03-8.39-9.31-10.57-15.31-1.11-3.06-1.9-6.23-2.84-9.35M250.56,238.55c-8.07,5.69-16.3,11.06-25.23,15.4-9.86,4.8-19.52,5.14-29.16-.1-8.07-4.39-15.98-9.08-23.97-13.63-.77-.44-1.61-.75-2.96-1.38.37.97.41,1.28.57,1.47,7.34,8.38,15.34,15.96,25.13,21.52,9.64,5.48,19.32,6.28,29.27,1.08,7.85-4.1,14.42-9.86,20.44-16.24,2.35-2.49,4.21-5.43,6.46-8.23-.05.02-.11.04-.56.1M170.61,222.69c5.07-.47,9.61-2.59,13.31-5.79,7.78-6.72,16.99-10.62,26.24-14.25,2.06.97,4.09,2.28,6.31,2.92,6.12,1.77,11.15,5.28,16.26,8.92,4.24,3.03,8.9,5.81,13.78,7.54,8.16,2.89,18.77-2.26,22.43-10.07,2.59-5.52-1.77-11.91-7.79-11.41-2.88.24-4.37,2.56-3.44,5.54.2-.23.46-.4.53-.62.72-2.3,2.07-3.59,4.63-2.88,2.76.77,4.23,2.79,3.99,5.4-.3,3.27-3.15,5.96-6.67,6.19-4.85.32-9.01-1.36-11.98-5.15-2.2-2.8-3.81-6.05-5.79-9.03-1.93-2.89-3.67-6.01-6.07-8.47-7.64-7.84-15.39-9-25.61-4.41-.57.26-1.48-.18-2.22-.38-3.23-.85-6.5-2.62-9.67-2.43-9.21.54-15.62,5.88-20.24,13.61-2.17,3.64-4.17,7.42-6.68,10.81-2.93,3.96-7.15,5.73-12.13,5.45-3.43-.19-6.09-2.5-6.78-5.81-.52-2.52.87-4.69,3.58-5.63,2.58-.89,4.2.04,4.99,2.59.11.36.23.72.34,1.08.93-4.43-1.12-6.46-4.89-5.8-5.85,1.01-8.84,7.04-5.63,12.04,4.31,6.69,10.35,10.62,19.2,10.04M167.93,237.72s-.04-.07,0,0Z"/>
  <path class="st13" d="M721.36,455c-.04,15.01-.08,30.03-.12,45.04,0,1.11,0,2.22,0,3.63h-3.6c-64.89,0-129.77-.04-194.66.05-9.28.01-18.44-.23-27.59-3.62-3.09-1.6-5.87-2.98-8.65-4.36-.25-.18-.49-.36-.99-.71-1.06-.78-1.93-1.31-2.64-2.01-2.77-2.69-5.48-5.42-8.22-8.14-.34-.6-.69-1.19-1.12-2.13-.67-1.04-1.24-1.74-1.82-2.44-.03-.25-.06-.5-.29-1.06-.76-1.5-1.32-2.69-1.88-3.88-.58-2.31-1.17-4.63-2.02-7.28-.3-1-.34-1.66-.37-2.33-.57-1.59-1.17-3.18-1.69-4.79-.11-.34-.01-.77.06-1.15.24-1.34.73-2.68.73-4.03.02-36.04-.02-72.08-.03-108.13,0-.64.1-1.28.17-2.11,16.61,0,33.1,0,49.82.25.27.48.31.71.35.94-.04.56-.12,1.12-.12,1.69,0,32.32,0,64.64.01,97.41.04.7.07.95.05,1.43,0,.83.06,1.44.11,2.24,1.29,1.36,2.58,2.53,3.87,3.7.93.1,1.87.29,2.8.29,65.2,0,130.4,0,196.03-.01.89.5,1.36,1,1.82,1.5Z"/>
  <path class="st13" d="M1065.88,366.51c2.53-.71,5.01-1.69,7.59-2.06,3.37-.48,6.8-.51,10.21-.69,1.79-.09,3.58-.11,5.38-.11,62.75-.01,125.5-.02,188.74-.03,1.28-.04,2.08-.07,2.87-.11.36.55,1.02,1.1,1.02,1.65.06,15.95.04,31.91.04,48.32h-3.65c-63.73,0-127.46,0-191.2,0-1.04,0-2.08-.02-3.11.04-4.63.28-6.59,2.3-6.59,6.88-.01,26.63,0,53.25,0,79.88v3.37c-1.25,0-2.26,0-3.26,0-15.29.05-30.57.11-45.86.12-.26,0-.52-.48-.76-1.19-.02-1.64-.06-2.82-.11-4.01.01-27.99.02-55.98.04-84.43.02-2.18.03-3.91.05-5.63.25-1.93.51-3.85.76-6.21.97-3.3,1.95-6.16,2.92-9.02.49-.88.98-1.76,1.57-2.96,1.77-2.83,3.43-5.33,5.1-7.83,0,0-.06-.03.13-.08,1.01-.94,1.83-1.84,2.65-2.74.72-.63,1.43-1.26,2.42-2.08,2.54-1.77,4.8-3.36,7.06-4.95.19-.02.37-.04.84-.21,2.23-1.09,4.17-2.02,6.11-2.96,2.03-.63,4.07-1.26,6.43-2.05,1.09-.41,1.85-.67,2.61-.92Z"/>
  <path class="st10" d="M289.53,155.24c4.59-12.86,9.69-25.65,7.16-39.78-2.44-13.66-7.05-26.59-13.63-38.79-3.78-7-8.17-13.6-13.96-19.14-1.83-1.75-3.86-3.33-5.93-4.8-6.58-4.65-13.3-5.11-20.32-.77-6.42,3.96-12.88,7.89-19.54,11.42-3.71,1.96-7.77,3.43-11.84,4.48-5.71,1.48-11.03-.68-16.04-3.14-6.52-3.19-12.84-6.79-19.24-10.21-1.41-.76-2.82-1.53-4.27-2.22-8.33-4.01-13.77-3.14-20.51,3.32-6.39,6.13-10.54,13.74-14.01,21.75-6.19,14.28-10.48,29.14-12.06,44.59-1.29,12.56,1.61,24.56,7.52,35.76.7,1.33,1.37,2.69,2.03,4.05.08.16.07.36.17.97-3.11.16-6.18.44-9.24.38-.62-.01-1.59-1.18-1.78-1.97-2.34-9.8-4.56-19.63-6.81-29.45-.21-.92-.39-1.84-.65-3-.13-.67-.19-1.11-.33-1.93-.26-1.36-.43-2.34-.61-3.32-.63-3.4-1.27-6.79-1.91-10.18-.28-3.26-.51-6.52-.84-9.77-.28-2.71-.7-5.4-.98-8.11-.03-.3.49-.65.75-1.33-.03-.45-.05-.54-.08-.64.02-3.97.03-7.94.07-12.37,0-.71-.02-.97-.05-1.23-.16-1.08-1.64-2.12.06-3.3.38-.26.34-1.47.14-2.14-.79-2.72-.13-5.23,1-8.16.3-1.8.48-3.16.66-4.52.31-1.37.62-2.74,1.02-4.54.28-1.41.48-2.39.67-3.37.24-.41.49-.82.87-1.54.18-.64.23-.98.28-1.31.17-.62.34-1.23.72-2.13.57-1.26.93-2.25,1.28-3.23.08-.09.16-.18.4-.54,4.64-9.75,11.45-16.81,21.34-20.67.5-.05,1-.1,1.84-.32,2.54-.35,4.39-1.13,5.57-3.12.2-.01.35-.1.67-.48,2.74-2.05,5.26-3.88,7.79-5.72.63-.21,1.26-.43,2.16-.88.66-.44,1.06-.63,1.46-.83.23-.03.46-.05,1.03-.25,4.16-1.48,8-2.8,11.83-4.11.59-.08,1.18-.15,2.2-.29,2.74-.61,5.06-1.16,7.37-1.7,2.14-.26,4.28-.52,6.86-.86,2.73-.32,5.02-.56,7.3-.8.61,0,1.21.02,2.3.02,2.58-.04,4.67-.07,6.77-.1.61.03,1.21.05,2.28.08,1.25-.03,2.04-.05,2.82-.08,1.16.03,2.32.05,3.97.09,1.81.08,3.13.15,4.6.36.83.13,1.52.12,2.43.16,1.02.03,1.81.02,2.6.02,2.3.38,4.6.77,7.37,1.16,3.14.39,5.82.77,8.5,1.15.62.19,1.24.39,2.25.68,7.25,2.27,14.12,4.43,20.98,6.6,1.19.57,2.38,1.13,3.93,1.83,4.21,2.75,8.05,5.36,11.9,7.98.63.21,1.26.43,2.27.7,2.76,1.03,5.36,1.65,7.44,3.04,4.17,2.81,6.5,7.2,8.35,11.7,1.79,4.36,3.13,8.9,4.67,13.37.17.91.34,1.81.54,3.02.03.45.05.6.1.74.34,1.61.68,3.23,1.03,5.31.61,4.47,1.2,8.47,1.79,12.48.32,3.44.65,6.87.99,10.8.06,2.58.1,4.68.15,6.77-.03,5.31-.05,10.62-.08,16.39.03.89.05,1.32.08,1.74-.34,4.48-.68,8.96-1.03,13.44-.05.65-.12,1.3-.2,2.41-.19,2.02-.37,3.56-.64,5.32-1.84,8.45-3.62,16.68-5.32,24.93-.31,1.51-.9,2.23-2.58,2.24-2.62,0-5.24.31-7.89.23,0-1.61,0-2.97.03-4.33Z"/>
  <path class="st21" d="M570.58,124.54c14.81.04,29.63.07,44.44.11,1.11,0,2.23,0,3.49,0,.08.75.19,1.29.19,1.82,0,67.57-.01,135.13-.28,202.96-1.2.31-2.13.35-3.07.39-14.94-.03-29.87-.06-45.29-.09-.89-.94-1.3-1.88-1.72-2.81.05-.56.14-1.12.14-1.68,0-66.14-.01-132.27-.02-198.87.71-.92,1.41-1.37,2.12-1.82Z"/>
  <path class="st17" d="M209.59,308.47c1.87-2.17,3.92-4.05,5.64-6.2,12.29-15.38,24.52-30.8,36.7-46.26.74-.94,1.18-2.34,1.22-3.54.14-4.52.16-9.06,0-13.58-.06-1.94.67-3.12,2.15-4.24,8.51-6.43,16.7-13.23,23.56-21.46,2.1-2.52,3.88-5.31,5.95-7.8.15.75.14,1.31.17,1.88.22,4.56.91,9.15.57,13.66-.59,7.96,1.62,15.95-.46,23.85-.07.25.08.56.09.84.13,4.49.31,8.98.35,13.48.02,2.25-.62,4.56-.26,6.73.92,5.47.86,10.86-.34,16.26-9.49-4.31-18.98-8.62-28.79-13.07-3.32,25.85-6.59,51.39-9.94,77.52-.91-.87-1.55-1.44-2.14-2.06-10.53-11.07-21.04-22.15-31.58-33.21-.77-.81-1.64-1.52-2.65-2.3-.2-.12-.21-.23-.25-.5Z"/>
  <path class="st2" d="M285.07,282.24c1.08-5.55,1.14-10.93.21-16.41-.37-2.17.28-4.48.26-6.73-.04-4.49-.22-8.99-.35-13.48,0-.28-.16-.58-.09-.84,2.08-7.91-.13-15.9.46-23.85.33-4.52-.35-9.11-.57-13.66-.03-.56-.01-1.13.02-1.94.04-.24-.01-.25.15-.33.22-.58.29-1.08.35-1.59.18-3.36.43-6.72.51-10.08.09-4.11.09-8.22.01-12.33-.06-3.1-.37-6.19-.43-9.29-.1-5.36-.1-10.73-.13-16.1-.02-4.16-.02-8.31-.04-12.97-.03-1.44-.05-2.38-.02-3.58.02-2.55,0-4.84.02-7.36.02-1.19,0-2.14-.04-3.1v-5.53h3.74c1.41,5.23.18,10.49.37,16.21.02,1.44.05,2.39.08,3.34-.02,4.02-.05,8.05-.06,12.34,0,1.63-.02,2.99-.03,4.86-.3,10.72-1.34,20.92-.46,31.36-.22,1.37-.39,2.53-.56,3.69-.03,1.53-.06,3.06-.08,5.07.22,1.84.43,3.2.61,4.78-.01.83.01,1.44,0,2.28-.12,1.38-.2,2.51-.28,3.65-.11.29-.22.59-.32,1.26.01.8.02,1.23.03,1.65-1.12,1.97-.54,3.59.51,4.46,0,2.34,0,4.1.01,6.33-.15,2.95-.32,5.43-.48,7.9-.12,1.4-.24,2.79-.26,4.61.35,2.9.59,5.38.84,7.86.11,1.78.22,3.56.33,5.34.01.18.11.47.04.53-3.97,3.08.91,6.97-.93,10.26-.12.21.23.68.4,1.48-.11,2.56-.26,4.66-.41,6.76-.07,2.31-.13,4.63-.15,7.4.2,2.8.35,5.15.5,7.49-1.21-.54-2.41-1.07-3.74-1.76Z"/>
  <path class="st3" d="M464.6,109.36c.56.09,1.45.3,1.63.77.28.75.08,1.67.08,2.52,0,71.05,0,142.1,0,213.15,0,1.13.02,2.26-.12,3.65-.63-.11-1.1-.47-1.58-.83,0-73.01,0-146.02,0-219.26Z"/>
  <path class="st14" d="M289.07,190.97c-.93-10.23.1-20.42.44-30.89,2.64-.43,5.26-.73,7.88-.74,1.68,0,2.26-.73,2.58-2.24,1.7-8.25,3.48-16.49,5.48-24.81.73,1.54,1.22,3.15,1.7,4.77.15.45.3.9.47,1.79.01,3.1,0,5.76,0,8.42,0,0-.09.25-.25.55-1.19,3.96-2.22,7.62-3.25,11.28-.35.64-.7,1.29-1.24,2.23-1.59,2.26-2.8,4.41-4.46,6.13-3.02,3.11-5.77,6.24-5.67,10.92-.16.62-.33,1.25-.66,2.22-.4,1.59-.63,2.83-.86,4.07-.06.2-.11.39-.31.91-.71,2.01-1.28,3.7-1.86,5.38Z"/>
  <path class="st3" d="M111.28,147.31c1.12,3.09,1.92,6.26,3.03,9.32,2.18,6,5.37,11.28,10.57,15.31,1.23.95,1.47,3.31,1.95,5.07,1.38,5.04,2.65,10.11,3.96,15.38-4.18-.13-4.98-1.03-5.09-5.04-.11-3.7.09-7.51-.71-11.07-.6-2.64-3.05-4.97-5.02-6.57-2.86-2.32-3.34-1.72-4.22-5.8h-2.84c.25-.12.51-.25.76-.37-.43-1.53-.93-3.04-1.28-4.58-.35-1.55-.51-3.14-.85-4.69-.17-.77-.36-1.98-.85-2.17-3.03-1.15-2.08-2.5-.4-4.01.27-.24.54-.5,1-.78Z"/>
  <path class="st3" d="M302.77,53.74c-1.74-4.44-3.08-8.99-4.88-13.34-1.85-4.51-4.18-8.9-8.35-11.7-2.08-1.4-4.68-2.01-7.23-3.1,1.35-2.34,3.76-2.8,5.82-1.4.57.39,1.44.34,2.05.7.96.57,2.16,1.13,2.64,2.02.71,1.32,1.17,2.27,2.93,1.71.49-.16,1.68.37,1.79.78.87,3.23,1.55,6.5,2.28,9.7,4.06,1.23,4.65,2.3,2.94,6.02-1.08,2.34-1.7,4.21,1.46,5.31.47.16,1.09,1.32.99,1.42-.65.71-1.48,1.26-2.45,1.89Z"/>
  <path class="st3" d="M1113.88,132c-1.16,1.31-2.54,2.64-4,3.89-6.01,5.16-10.01,11.68-12.79,18.99-1.04,2.75-1.86,5.59-2.81,8.61-3.14-1.31-4.18-4.15-2.8-7.34,2.41.82,4.41-1.08,4.15-4.2-.24-2.91.64-4.98,3.22-6.53.79-.47,1.41-1.97,1.36-2.95-.21-3.94.17-4.56,3.96-5.48.7-.17,1.83-.96,1.8-1.4-.27-3.85,2.88-2.94,4.84-3.55.86-.27,1.87-.04,3.07-.04Z"/>
  <path class="st3" d="M1012.35,406.25c-2.17-15.12-7.83-28.25-20.65-37.7.54-2.11,1.58-1.6,2.57-.55.55.58.9,1.35,1.34,2.03,1.56-.39,2.71-3.08,4.26-.54.38.63.21,1.59.57,2.24.93,1.69,1.76,4.38,3.1,4.71,2.46.6,3.05,1.71,2.92,3.94,2.74.52,3.64,1.87,2,4.35-.27.41-.44,1.4-.24,1.56,4,3.02,2.19,8.14,4.35,11.85,1.21,2.08,1.86,4.49,2.87,7.03-1.37.51-2.13.79-3.1,1.07Z"/>
  <path class="st3" d="M30.8,354.66c-1.23,4.47-2.8,8.88-4.05,13.37-2.37,8.47-4.55,16.99-6.82,25.48-.19.7-.45,1.39-.72,2.31-2.89-.03-3.16-.57-2.59-3.29.32-1.54-.03-3.21.17-4.8.08-.64.97-1.77,1.2-1.7,2.31.7,2.19-.75,2.36-2.27.22-1.94,1.1-3.87.98-5.76-.23-3.67,2.53-6.07,3.31-9.07.92-3.52,2.77-7.31.98-11.28-.68-1.51,2.79-3.57,5.19-3Z"/>
  <path class="st3" d="M345.03,313.05c-10.63-5.55-21.26-11.32-31.89-17.09-.32-.18-.67-.31-1.1-.63.5-1.09.98-2.65,1.71-2.78.92-.16,2.05.85,3.21,1.2,1.44.73,2.89,1.46,4.68,2.36,1.83-1.24,2.79-1.07,3.32,1.67.58,2.99,2.25,3.32,4.17,2.72,2.1,2,3.96,3.76,5.8,5.51,2.84-2.33,2.79-2.31,4.1.84.3.71.92,1.39,1.57,1.83,1.28.87,2.68,1.57,4.22,2.36.2.61.2,1.2.2,2.02Z"/>
  <path class="st3" d="M288.95,284.15c-.28-2.49-.43-4.84-.56-7.43,2.27.16,5.17-.33,4.8,3.5-.05.51.55,1.21,1.02,1.63,2.31,2.04,4.67,4.01,7.08,6.06,1.04-.86,1.89-1.55,3.04-2.49.78.97,1.66,1.79,2.19,2.79.79,1.51,1.36,2.97,3.44,3.27.48.07.72,1.83,1.06,3.05-7.32-3.25-14.63-6.74-22.08-10.38Z"/>
  <path class="st3" d="M62.79,319.98c-4.21,3.42-8.36,6.77-12.76,9.76-6.12,4.17-11.19,9.2-14.74,15.94.06-2.72.15-5.57.68-8.32.12-.61,1.76-1.13,2.76-1.32,1.34-.25,2.8.03,2.16-2.2-.13-.45.55-1.2.98-1.72.2-.25.93-.22.98-.43,1.09-4,5.39-2.93,7.71-4.92,2.64-2.27,5.06-4.84,7.88-6.86.97-.7,2.84-.14,4.35.07Z"/>
  <path class="st3" d="M141,24.16c-9.86,4.07-16.67,11.14-21.31,20.7-1.75-.6-2.25-1.03-.88-2.91,1.44-1.96,3.82-4.2,2.04-7.38-.12-.22,1.24-1.73,2.09-1.95,1.65-.41,4.01.51,3.56-2.7-.05-.39.56-.91.93-1.31,1.09-1.21,2.17-2.44,3.34-3.57.55-.54,1.29-1.22,1.97-1.24,2.74-.08,5.48.08,8.26.36Z"/>
  <path class="st3" d="M263.99,14.93c-6.86-1.96-13.73-4.13-20.78-6.42-.41-2.57.06-4.02,3.07-3.01,1.19.4,2.65-.09,3.91.17.87.18,1.97.77,2.36,1.5,1,1.88,5.2,4.07,6.97,3.05,1.98-1.14,2.71-.22,3.32,1.41.39,1.03.77,2.06,1.15,3.31Z"/>
  <path class="st3" d="M90.06,304.03c-6.65,4.14-13.52,8.15-20.38,12.17-1,.58-2,1.16-3.21,1.75.04-2.52-.42-5.46,3.68-5.42.57,0,1.15-1.82,1.38-2.2,2.76-.63,6.07-.39,7.37-1.89,2.39-2.77,4.63-4.4,8.31-3.96.85.1,1.77-.37,2.86-.44Z"/>
  <path class="st3" d="M1055.16,131.86c-5.47-2.73-10.94-5.41-17.38-6.18-.03-.53.12-1.41.37-1.45,3.74-.47,7.49-.86,11.24-1.18.32-.03,1,.57.98.82-.31,2.94,2.42,3.26,3.94,4.47,1.29,1.03,1.68,1.9.84,3.51Z"/>
  <path class="st3" d="M377.33,335.88c-4.5-3.27-8.97-6.75-13.53-10.4,1.27-.9,2.63-1.64,4.27-2.52.42,1.36.76,2.48,1.15,3.76.65.11,1.39.38,2.1.33,2.66-.19,5.13-.31,4.5,3.64-.03.21,1.41.72,2.2.98.66.22,1.37.3,2.33.49-1.23,1.45-2.11,2.49-3.01,3.72Z"/>
  <path class="st3" d="M131.31,195.44c1.08,2.3,1.69,4.77,2.86,6.96,2.07,3.89,4.48,7.59,6.83,11.55-2.34.76-4.76,1.31-7.4.04.4-.71.65-1.18.92-1.65,1.82-3.15.99-5.27-2.33-6.74-.84-.37-1.84-1.61-1.84-2.45,0-2.55.45-5.11.95-7.71Z"/>
  <path class="st3" d="M1106.07,315.7c5.26,4.28,10.97,7.87,17.44,10.65-1.86,1.98-7.74,2.34-9.58.63-.44-.4-1.01-1.24-.86-1.6.66-1.58-.62-1.95-1.28-2.9-1.78-2.57-4.5-3.28-7.62-4.08.79-1.09,1.3-1.8,1.9-2.69Z"/>
  <path class="st3" d="M151.05,224.34c4.38,3.38,8.53,6.77,12.76,10.32-1.85.89-3.78,1.61-4.82,2-1.55-1.69-2.53-2.78-3.53-3.85-.45-.48-1.22-.87-1.34-1.42-.52-2.36-1.48-4.06-4.24-4.15-.31,0-.95-1.22-.79-1.47.38-.61,1.14-.97,1.97-1.44Z"/>
  <path class="st3" d="M292.97,178.4c-.32-4.69,2.43-7.82,5.45-10.93,1.66-1.71,2.87-3.87,4.42-5.94.89.07,1.64.27,1.94.34-.64,2.14-1.07,3.95-1.75,5.66-.28.71-1.04,1.66-1.68,1.74-2.58.35-4.34,1.23-4.6,4.18-.07.77-1.16,1.45-1.99,2.43.14.32.42.96.8,1.85-.84.24-1.61.46-2.6.67Z"/>
  <path class="st3" d="M362.02,323.93c-5.24-3.05-10.47-6.33-15.78-9.79-.05-.35.02-.7.03-.7,2.37.33,6.19-.07,6.83,1.18,1.79,3.47,4.22,4.07,7.48,3.86.16-.01.34.14.25.1.42,1.82.8,3.47,1.18,5.34Z"/>
  <path class="st3" d="M279.84,24.7c-3.86-2.36-7.7-4.98-11.71-7.71.74-1.11,1.54-2.24,2.6-3.02.39-.29,1.74.01,2.05.46,1.26,1.82,2.29,3.8,3.34,5.62,1.54-.36,2.7-.62,4.08-.94-.14,2.06-.25,3.7-.37,5.59Z"/>
  <path class="st3" d="M289.02,191.19c.63-1.9,1.2-3.59,1.91-5.45,1.01.25,1.88.67,3.07,1.24-.08.59-.24,1.38-.28,2.16-.06,1.47-.11,2.94-.05,4.4.03.85.29,1.7.44,2.54-1.15.04-2.32.24-3.44.07-.65-.1-1.21-.8-2.01-1.26-.03-1.18.14-2.34.36-3.71Z"/>
  <path class="st3" d="M289.03,204.51c-.21-1.36-.43-2.72-.61-4.31,4.2-.2,4.73.32,4.29,3.07.81,1.53,1.77,2.51,1.71,3.42-.13,1.96-3.04,3.97-5.47,4-.16-1.16-.08-2.29.25-3.67,1.03-.69,1.82-1.13,2.6-1.57-.11-.26-.23-.52-.34-.79-.81-.05-1.62-.1-2.44-.15Z"/>
  <path class="st3" d="M118.91,289.23c-4.39,2.47-8.79,4.73-13.39,7-.42-1.06-.64-2.14-.8-2.9,3.12-2.44,7.35-1.44,10.03-4.7,1.71-2.07,3.2-1.63,4.17.59Z"/>
  <path class="st3" d="M408.27,432.89c-.99-3.63-1.74-7.26-2.5-11.11,2.61-.43,4.12.91,4.96,3.47-.51.65-1.09,1.41-1.21,1.56.92,1.76,2.12,3.06,2.17,4.41.07,1.88-1.78,1.72-3.42,1.68Z"/>
  <path class="st3" d="M219.71,5.25c-1.32-.07-2.64-.14-4.21-.26,2.1-3.23,5.43-4.59,9.2-4.98.71-.07,1.96.33,2.11.79.22.67-.24,1.64-.59,2.4-.32.7-.87,1.3-1.32,2.16-.79.22-1.58.23-2.6,0-.37-.78-.52-1.33-.8-2.4-.82,1.06-1.31,1.69-1.79,2.31Z"/>
  <path class="st3" d="M100.25,298.46c-3.15,1.9-6.29,3.6-9.59,5.41-1.03-2.03-.97-3.52,1.94-3.68.61-.03,1.12-1.2,1.77-1.73,1.17-.95,2.31-2.2,3.67-2.59,1.54-.45,2.75.41,2.21,2.59Z"/>
  <path class="st3" d="M405.42,418.72c-1.24-4.91-2.26-9.83-3.32-14.98.4-.13,1.07-.17,1.25.11,1.19,1.8,2.88,3.55,3.24,5.54.52,2.86.07,5.89-.03,8.85,0,.17-.6.32-1.15.48Z"/>
  <path class="st3" d="M1069.85,147.83c-2.1-2.55-4.11-5.3-6.19-8.22.09-2.9,2.46-2.81,4.22-3.34.2-.06,1.49,1.91,1.25,2.28-1.65,2.55-.06,4.57.71,6.77.24.69.08,1.53.02,2.5Z"/>
  <path class="st3" d="M1092.79,288.43c1.19,3.44,2.18,6.93,3.19,10.42.15.52.41,1,.65,1.72-5.53-2.27-7.03-3.78-5.13-9.03.37-1.02.73-2.04,1.29-3.1Z"/>
  <path class="st3" d="M1076.38,167.65c-1.38-4.35-2.55-8.73-3.76-13.32,1.73,1.24,3.52,2.66,5.24,4.16.28.25.52,1.02.36,1.24-1.77,2.39,2.08,5.94-1.83,7.92Z"/>
  <path class="st3" d="M474.8,485.07c2.82,2.52,5.54,5.26,8.3,7.94.71.69,1.59,1.22,2.47,2.01-2.12-.02-4.33-.22-6.73-.44.59-2.88.15-4.61-3.16-4.53-2.19.05-2.48-1.68-.89-4.97Z"/>
  <path class="st3" d="M995.62,493.11c2.3-2.82,4.63-5.43,7.12-8.13,1.12.33,2.07.76,3.03,1.19-4.02.95-3.93,4.91-5.76,7.36-1.34,1.79-3.36,1.71-4.39-.42Z"/>
  <path class="st3" d="M392.65,366.04c-1.5-3.47-2.77-6.98-4.13-10.66.54-.34,1.21-.74,1.78-.62.74.16,1.37.8,2.11,1.09,1.44.56,1.98,1.23,1.4,2.95-.48,1.39-.13,3.05-.27,4.57-.09.89-.43,1.75-.88,2.68Z"/>
  <path class="st3" d="M772.87,360.88c-4.5,1.67-9.09,3.13-13.9,4.61.4-4.18,3.02-5.7,6.99-4.15,1.46-2.4,3.61-2.61,6.91-.47Z"/>
  <path class="st3" d="M748.01,373.48c-.83,1.08-1.66,2.15-2.67,3.31-1.17-1.21-2.17-2.49-3.43-4.12,1.14-.4,2.52-.88,4.12-1.44.06-.41.14-1.03.25-1.65.31-1.89,1.15-2.33,2.86-1.23.86.55,1.96.73,3.19,1.08-.6.74-1.43,1.47-2.48,2.09-.8-.18-1.38-.24-1.97-.3.04.75.08,1.5.12,2.26Z"/>
  <path class="st3" d="M173.37,8.42c-3.81,1.56-7.65,2.87-11.7,4.22.39-.98.82-2.19,1.66-2.96.97-.9,2.3-1.42,3.94-2.37-.28-.25.06.3.44.34.73.07,1.64.06,2.21-.31.84-.55,1.45-1.45,2.16-2.2.42,1.02.85,2.03,1.29,3.29Z"/>
  <path class="st3" d="M132.6,282.42c-2.62,1.59-5.37,2.94-8.34,4.31-2.74-2.3-2.3-4.13,1.44-4.91,2.14-.45,4.51.21,6.9.6Z"/>
  <path class="st3" d="M735.54,470.85c2.43,5.87,4.88,11.69,9.15,16.75-1.26-.57-2.9-1.08-3.74-2.19-1.66-2.19-2.94-4.68-4.25-7.12-.56-1.05-.8-2.27-1.25-3.61-.53-.43-1.34-1.08-2.14-1.73.68-.68,1.35-1.36,2.23-2.12Z"/>
  <path class="st3" d="M396.84,380.14c-1.37-3.77-2.51-7.58-3.64-11.62,3.81-.21,3.78-.2,3.99,3.55.11,2.03.43,4.05.51,6.07.03.64-.41,1.3-.86,2Z"/>
  <path class="st3" d="M10.95,432.3c-.64,3.87-1.47,7.71-2.42,11.74-2.47-1.42-1.6-4.02-.9-5.55,1-2.21,1.52-3.82-.23-5.71-.21-.22.03-.86.1-1.71,1.26.47,2.26.84,3.46,1.23Z"/>
  <path class="st3" d="M1097.59,303.64c2.23,3.08,4.22,6.18,6.27,9.47-.87-.07-2.1-.04-2.71-.64-1.45-1.41-1.67-4.48-4.88-3.29-.31-1.19-.69-2.37-.9-3.58-.26-1.48.59-2.02,2.21-1.96Z"/>
  <path class="st3" d="M400.61,396.1c-1.26-4.01-2.3-8.04-3.34-12.29,3.42.1,3.63.61,3.52,4.12-.06,1.91.55,3.89,1.1,5.77.37,1.27.72,2.2-1.28,2.4Z"/>
  <path class="st3" d="M304.33,159.2c.82-3.76,1.85-7.42,3.02-11.24,2.16.48,2.17,1.73,1.52,3.52-.53,1.45-.87,3.12-.74,4.64.24,2.8-.81,3.89-3.79,3.08Z"/>
  <path class="st3" d="M288.67,232.28c-.04-2.47.12-4.95.32-7.68,1.63.49,4.32,0,4.36,2.54.04,2.74-1.46,4.75-4.69,5.14Z"/>
  <path class="st3" d="M197.12,4.81c-2.28.45-4.57.68-7.11.88-.22-1.37-.44-2.78-.05-4,.22-.7,1.87-1.71,2.1-1.53,1.79,1.34,3.4,2.94,5.06,4.66Z"/>
  <path class="st3" d="M1010.21,469.37c.71-4.42,1.52-8.61,2.4-13.02.58.3,1.65,1.1,1.54,1.31-1.78,3.46-.5,7.16-.94,10.71-.29,2.39-1.29,2.34-3.01,1Z"/>
  <path class="st3" d="M113.53,113.31c.83,3.35,1.47,6.75,2.1,10.14.18.98.35,1.96.51,3.18-.55.1-1.3.13-1.56-.21-1.71-2.24-3.42-9.85-1.05-13.12Z"/>
  <path class="st3" d="M745.64,489.06c2.72,1.85,5.28,3.81,7.88,5.94-.5.89-1.05,1.62-1.6,2.33-3.66-1.56-6.49-3.73-6.29-8.27Z"/>
  <path class="st3" d="M307.34,137.03c-.67-1.58-1.16-3.2-1.8-4.94.02-1.67.2-3.22.43-5,1.83-.35,1.48.95,1.72,2.04.21.95.71,2.13,1.46,2.63,2.34,1.56,2.4,2.24.03,3.76-.61.39-1.1.97-1.84,1.51Z"/>
  <path class="st3" d="M406.64,502.21c1.35-2.36,2.74-4.46,4.18-6.77,3.29.78,1.13,3.34,1.12,4.9,0,1.4-1.64,3.19-3.02,4.09-1.82,1.18-2.01-.68-2.28-2.22Z"/>
  <path class="st3" d="M1062.49,138.06c-1.86-1.36-3.7-2.94-5.62-4.69.52-.54,1.08-1.06,1.74-1.25.47-.13,1.06.24,1.61.29,1.21.11,2.43.17,3.65.24-.29,1.4-.56,2.8-.88,4.19-.08.35-.31.67-.5,1.21Z"/>
  <path class="st3" d="M289.23,244.78c-.44-2.51-.69-4.99-.91-7.71.57.26,1.66.89,1.58,1.27-.53,2.49.37,3.09,2.68,2.54.57-.13,1.28.35,2.75.8-2.63,1.06-1.82,6.12-6.11,3.1Z"/>
  <path class="st3" d="M988.81,498.06c1.7-1.44,3.48-2.68,5.44-3.99.36,1.9.54,3.86.73,6.02-2.4.12-4.85,1.29-6.18-2.04Z"/>
  <path class="st3" d="M156.79,14.57c-2.4,2-4.92,3.84-7.62,5.75-2.17-3.97-1.33-5.19,3.3-5.21,1.4,0,2.79-.46,4.32-.54Z"/>
  <path class="st3" d="M288.71,269.12c-.09-2.1.06-4.2.24-6.55,1.9-.11,3.53.44,3.92,2.55.61,3.27-.12,3.98-4.16,4Z"/>
  <path class="st3" d="M515.59,330.02c.21-1.02.4-1.84.63-2.88.85-.4,1.7-.81,2.46-.68.71.12,1.91,1.16,1.87,1.22-.97,1.72-2.01,3.42-3.19,4.99-.23.3-1.14.08-1.73.1-.02-.85-.04-1.7-.04-2.76Z"/>
  <path class="st3" d="M516.78,447.06c-.03-.25-.07-.51-.05-.95,3.33-1.06,5.04.98,4.42,5.04-.09.55-.28,1.08-.43,1.84-1.3-.95-2.59-2.11-3.69-3.52,1.16-1.19,1.24-1.96-.25-2.42Z"/>
  <path class="st3" d="M306.24,75.29c-.8-4-1.4-8-1.95-12.23.96-.11,2.26-.32,2.69.2.45.55.04,1.79.06,2.72.05,2.15.01,4.31.24,6.44.13,1.16,1.09,2.36-1.04,2.87Z"/>
  <path class="st3" d="M721.59,454.99c-.69-.5-1.15-.99-1.79-1.56-.16-.91-.25-1.78-.12-2.6.33-2.14,2.21-2.88,3.59-1.21.75.91.86,2.59.73,3.87-.06.57-1.41,1.01-2.41,1.51Z"/>
  <path class="st3" d="M1280.67,363.32c-.79.24-1.58.28-2.61.26-.35-.98-.63-1.92-.53-2.82.1-.88.54-2.42.89-2.44,1.12-.06,2.27.46,3.41.76-.22.83-.43,1.67-.67,2.49-.15.52-.33,1.03-.5,1.74Z"/>
  <path class="st3" d="M757.48,365.96c-1.2,1.04-2.58,2-4.17,2.97-.74-1.01-1.37-2-1.77-3.08-.28-.77-.24-1.65-.34-2.48.87.1,1.84,0,2.6.34,1.24.57,2.34,1.43,3.68,2.26Z"/>
  <path class="st3" d="M1026.92,327.48c.52.74.82,1.49,1.34,2.28-.82,1.82-4.34,2.32-5.43.74-.39-.57-.53-1.67-.24-2.26.29-.59,1.24-1.03,1.96-1.17.67-.12,1.43.25,2.36.4Z"/>
  <path class="st3" d="M1128.84,125.77c-1.55.73-3.11,1.2-4.88,1.69-.31-1.28-.77-2.72-.35-3.81.2-.52,2.21-.76,3.17-.45.84.28,1.37,1.51,2.06,2.56Z"/>
  <path class="st3" d="M182.93,6.47c-2.29.75-4.6,1.3-7.13,1.86-.59-.9-.96-1.81-1.43-2.96,2.36-.31,4.44-.74,6.53-.76.66,0,1.33,1.08,2.02,1.87Z"/>
  <path class="st3" d="M1022.82,176.41c3.27.94,4.26,3.56,4.37,6.92-.89.19-1.83.38-2.55.08-.66-.28-1.1-1.09-1.63-1.67,2-1.78-.42-3.4-.19-5.33Z"/>
  <path class="st3" d="M16.18,408.54c-.22,2.19-.64,4.39-1.27,6.7-1.15-1.69-2.14-3.47-2.95-5.33-.07-.16,1-1.03,1.65-1.24.72-.23,1.57-.09,2.57-.13Z"/>
  <path class="st3" d="M143.89,217.09c1.66,1.38,3.31,2.99,5.03,4.79-1.09.61-2.55,1.71-3.38,1.35-1.72-.75-2.82-2.35-1.73-4.52.19-.37.05-.91.08-1.62Z"/>
  <path class="st3" d="M977.47,502.64c2.84-1.33,5.72-2.43,8.81-3.58-.09,2.26-2.31,4.29-4.45,4.16-1.44-.09-2.87-.23-4.35-.57Z"/>
  <path class="st3" d="M1004.75,482.27c.85-2.23,1.82-4.29,2.91-6.52.74,1.64,1.48,3.41,1.91,5.26.1.44-.74,1.52-1.26,1.61-1.11.18-2.29-.09-3.56-.34Z"/>
  <path class="st3" d="M307.8,147.2c-.18-2.58-.17-5.24-.14-8.16,2.91.66,3.66,2.23,2.34,4.65-.64,1.16-1.33,2.29-2.19,3.51Z"/>
  <path class="st3" d="M848.78,326.34c.88,1.16-.63,3.76,2.65,3.43-.39.77-1.03,1.49-1.67,2.22-1.21-1.08-2.43-2.16-3.64-3.23.82-.8,1.64-1.6,2.65-2.41Z"/>
  <path class="st3" d="M410.86,443.66c-.89-2.47-1.57-4.98-2.25-7.72,3.15-1.05,3.41-.78,2.95,2.33-.13.86.31,1.79.24,2.67-.08.9-.46,1.78-.94,2.72Z"/>
  <path class="st3" d="M720.76,330.02c.17-.87.33-1.5.55-2.33.71-.19,1.5-.4,1.99-.1.76.46,1.95,1.7,1.85,1.85-.8,1.15-1.85,2.12-2.83,3.14-.52-.77-1.03-1.54-1.55-2.55Z"/>
  <path class="st3" d="M895.33,330.02c1.18-.99,3.81,1.15,3.87-2.32.99.3,1.93.82,2.87,1.34-.75.62-1.49,1.26-2.26,1.85-.28.22-.75.24-.96.49-2.15,2.51-2.86.83-3.51-1.37Z"/>
  <path class="st3" d="M1049.65,372.53c-2.02,1.71-4.28,3.3-6.75,4.91-1.31-3.07-1.09-3.46,2-4.07,1.51-.3,3.01-.64,4.75-.84Z"/>
  <path class="st3" d="M206.2,4.72c-2.1.25-4.19.28-6.55.27,1.4-2.57,3.99-2.99,7.03-3.42-.2,1.23-.34,2.08-.48,3.15Z"/>
  <path class="st3" d="M486.73,495.96c2.79,1.15,5.58,2.53,8.43,4.1-.52.56-1.3,1.38-1.68,1.22-2.04-.83-4.04-1.8-5.91-2.95-.52-.32-.58-1.41-.84-2.38Z"/>
  <path class="st3" d="M1037.41,382.49c-1.45,2.51-3.12,5.01-4.91,7.65-.22-1.06-.49-2.27-.37-3.44.11-1.09.63-2.14.85-2.84,1.44-.47,2.83-.93,4.43-1.37Z"/>
  <path class="st3" d="M13.87,419.87c-.5,3.07-1.22,6.14-2.04,9.42-2.25-.61-3.11-1.48-.97-3.53.95-.91.97-2.75,1.53-4.12.27-.65.83-1.18,1.48-1.77Z"/>
  <path class="st3" d="M115.46,128.45c-1.02,2.3-2.11,4.42-3.31,6.73-.45-.84-1.35-2.07-1.05-2.85.63-1.67,1.85-3.12,2.92-4.59.07-.1.88.34,1.44.7Z"/>
  <path class="st3" d="M240.76,7.62c-2.68-.14-5.35-.52-8.27-.95.42-.39,1.05-.9,1.74-1.04,1.27-.25,2.62-.13,3.87-.43,1.99-.49,2.89.09,2.65,2.42Z"/>
  <path class="st3" d="M307.36,92.88c-.25-2.1-.29-4.19-.29-6.55,3.2.1,1.91,1.95,1.56,2.83.64,2,1.09,3.42,1.55,4.83-.21.1-.42.2-.62.3-.66-.47-1.33-.94-2.19-1.41Z"/>
  <path class="st3" d="M111.31,139.91c.23.79.23,1.58.2,2.6-1.89,1.09-3.29.29-4.37-1.14-.36-.48-.25-1.3-.36-1.97.66-.08,1.34-.28,1.98-.2.79.11,1.55.46,2.55.7Z"/>
  <path class="st3" d="M339.37,61.41c-1.25.31-2.49.4-3.88.67-.66-.35-1.18-.88-1.7-1.41.81-.54,1.56-1.4,2.43-1.52.94-.14,2.01.33,2.96.71.21.08.14.87.19,1.55Z"/>
  <path class="st3" d="M517.01,346.75c-.26-.23-.3-.46-.32-.87.49-1.44.88-2.74,1.46-3.95.18-.38.9-.75,1.32-.69.42.06.97.59,1.1,1.02.36,1.22-1.93,4.2-3.56,4.48Z"/>
  <path class="st3" d="M411.53,450.46c-.28-1.32-.34-2.64-.42-4.2,1.76.5,3.54,1.24,6.19,2.34-2.39.8-3.96,1.33-5.77,1.87Z"/>
  <path class="st3" d="M753.83,495.61c1.57.63,3.05,1.49,4.71,2.45-.39.78-1.31,2.15-1.47,2.06-1.71-.9-3.94-1.54-3.24-4.51Z"/>
  <path class="st3" d="M1030.73,393.29c-.75,2.87-1.72,5.73-2.78,8.79-.34.11-.75.08-.83-.09-.82-1.86,1.55-7.89,3.62-8.7Z"/>
  <path class="st3" d="M148.26,20.85c-.98,2.07-2.84,2.86-5.25,3.06.22-3.77,1.81-4.72,5.25-3.06Z"/>
  <path class="st3" d="M1276.13,330.05c1.68-.28,3.35-.32,5.28-.37.44.2.62.4.81.6-1.6.76-3.17,1.58-4.83,2.17-.14.05-.83-1.41-1.26-2.4Z"/>
  <path class="st3" d="M742.18,380.79c-1.08,2.52-2.37,5.04-3.77,7.73-.45-.07-1.03-.28-1.1-.59-.38-1.8,2.69-6.44,4.87-7.14Z"/>
  <path class="st3" d="M1065.85,366.32c-.72.45-1.48.7-2.44.93-1-.74-1.93-1.36-2.55-2.21-.33-.45-.12-1.28-.15-1.94.59-.02,1.38-.3,1.75-.03,1.2.91,2.25,2.02,3.39,3.25Z"/>
  <path class="st3" d="M464.46,328.74c.63.24,1.1.6,1.77.97,1.32,0,2.44.01,3.81.06-.5.94-1.23,1.83-1.97,2.72-1.21-1.26-4.21-.66-3.61-3.75Z"/>
  <path class="st3" d="M670.89,329.75c1.22-.14,2.35-.09,3.72.02.14,1.55.72,3.67-1.92,3.25-1.49-.23-3.06-.95-1.8-3.27Z"/>
  <path class="st3" d="M137.09,280.31c-.27.39-.53.56-.96.75-.86-.88-1.54-1.78-2.22-2.68,1.27-.53,2.53-1.05,3.8-1.58.16.29.33.57.49.86-.36.81-.73,1.62-1.1,2.65Z"/>
  <path class="st3" d="M568.15,326.94c.62.92,1.03,1.86,1.66,2.84-.38.74-.96,1.44-1.55,2.13-.86-.84-2.15-1.56-2.42-2.55-.15-.56,1.35-1.58,2.31-2.42Z"/>
  <path class="st3" d="M8.94,498.69c.86.72,1.54,1.56,2.3,2.58-.54.74-1.11,1.39-1.79,1.87-.58.41-1.29.62-1.95.92-.06-.78-.32-1.62-.12-2.33.29-1.02.91-1.95,1.56-3.03Z"/>
  <path class="st3" d="M615.35,330.04c.94-.26,1.87-.3,3.04-.35.55.73,1.33,1.84,1.1,2.13-.51.63-1.92,1.38-2.27,1.13-.84-.6-1.27-1.76-1.86-2.91Z"/>
  <path class="st3" d="M1056.73,369.32c-1.83,1.1-3.77,2.04-5.93,3,.95-3.79,2.67-4.7,5.93-3Z"/>
  <path class="st3" d="M570.55,124.33c-.67.67-1.38,1.12-2.14,1.77-.81-.07-1.68-.2-2.26-.68-.4-.32-.65-1.23-.49-1.7.14-.4,1.04-.84,1.5-.75,1.15.23,2.24.74,3.39,1.36Z"/>
  <path class="st3" d="M1073.29,330.01c1.27-.45,2.57-.7,3.93-1.17.56.58,1.06,1.39,1.55,2.19-.89.3-1.86.97-2.66.82-1-.19-1.86-1.06-2.82-1.84Z"/>
  <path class="st3" d="M381.28,340.48c-.74-.63-1.45-1.48-2.22-2.49.44-2.13,1.72-2.24,3.08-1.24,2.24,1.65-.53,2.34-.85,3.73Z"/>
  <path class="st3" d="M1092.77,168.82c.22,1.71.23,3.44.17,5.41-1.84.45-2.5-.43-2-2.03.37-1.18,1.06-2.25,1.82-3.38Z"/>
  <path class="st3" d="M1013.07,412.49c-.3-1.34-.39-2.68-.46-4.28.96.51,1.88,1.28,2.8,2.04-.72.74-1.43,1.49-2.34,2.24Z"/>
  <path class="st3" d="M670.89,172.23c.18,1.71.14,3.42.04,5.39-2.92-1.27-3-3.39-.04-5.39Z"/>
  <path class="st3" d="M307.38,111.04c-.24-.46-.27-.88-.26-1.52.22-.24.41-.31.59-.3,1.05,0,2.09.03,3.14.05-.03.63,0,1.8-.09,1.81-1.05.1-2.11.03-3.38-.03Z"/>
  <path class="st3" d="M1137.85,124.42c-1.53.44-3.07.65-4.85.82,1.1-2.71,3.33-3.15,4.85-.82Z"/>
  <path class="st3" d="M303.47,57.59c-.3-.21-.32-.36-.29-.62.6-.7,1.11-1.37,1.77-1.85.47-.35,1.16-.64,1.7-.57.35.05.93.85.85,1.2-.11.54-.6,1.2-1.1,1.4-.82.34-1.77.35-2.92.44Z"/>
  <path class="st3" d="M721.57,177.9c-.9-2.97,1.28-2.05,2.92-2.12.54,2.56-.5,3.17-2.92,2.12Z"/>
  <path class="st3" d="M734.09,401.73c.09,1.54-.04,3.09-.25,4.86-2.47-1.58-2.43-3.66.25-4.86Z"/>
  <path class="st3" d="M115.93,53.78c.03.99-.17,1.97-.41,3.17-1.06-.81-2.07-1.83-3.09-2.86.16-.25.32-.5.49-.75.93.14,1.86.29,3.01.44Z"/>
  <path class="st3" d="M211.29,4.71c-.79.25-1.58.28-2.6.27-.23-.23-.3-.44-.22-.59.42-.9.88-1.78,1.32-2.67.5.92,1,1.85,1.5,2.99Z"/>
  <path class="st3" d="M34.82,346.19c-.36,1.27-.92,2.55-1.65,3.93-.75-.51-1.33-1.13-1.92-1.74,1.12-.73,2.24-1.46,3.57-2.19Z"/>
  <path class="st3" d="M114.25,61.72c.03,1.34-.15,2.7-.41,4.29-.8-.35-1.53-.93-2.26-1.51.82-.92,1.64-1.84,2.67-2.78Z"/>
  <path class="st3" d="M17.28,403.43c0,1.26-.24,2.52-.67,3.89-.77-.76-1.34-1.63-1.92-2.49.79-.46,1.57-.93,2.59-1.39Z"/>
  <path class="st3" d="M467.17,465.77c.24.66.28,1.32.4,2.16-.67.45-1.42.79-2.2.93-.16.03-.73-.95-.65-1.03.69-.74,1.48-1.38,2.45-2.05Z"/>
  <path class="st3" d="M735.35,396.06c.04,1.19-.14,2.36-.39,3.75-.9-1.04-1.72-2.29-2.55-3.55.17-.23.34-.46.5-.68.74.15,1.48.31,2.43.48Z"/>
  <path class="st3" d="M291.45,184.67c.02-1.24.25-2.48.62-3.87.73.68,1.33,1.52,1.92,2.35-.78.5-1.55,1.01-2.54,1.52Z"/>
  <path class="st3" d="M385.3,347.26c-1.1-1.44-2.01-3.01-2.98-4.78,2.1-.08,3.41,1.9,2.98,4.78Z"/>
  <path class="st3" d="M142.56,215.83c.38.03.53.11.73.33-.07.34-.16.73-.36.79-.98.32-1.98.6-2.99.76-.09.01-.32-.92-.49-1.42.97-.15,1.93-.31,3.11-.46Z"/>
  <path class="st3" d="M982.58,363.46c-1.4-.25-2.81-.7-4.37-1.29,1.51-1.93,3.17-1.48,4.37,1.29Z"/>
  <path class="st3" d="M1027.06,408.53c.2,1.72.18,3.44.12,5.39-1.86-.64-2.03-4.03-.12-5.39Z"/>
  <path class="st3" d="M471.7,480.36c.82.65,1.39,1.35,1.97,2.23-1.25.18-2.5.18-3.75.18-.1-.29-.2-.59-.3-.88.61-.49,1.23-.99,2.08-1.53Z"/>
  <path class="st3" d="M400.02,503.66c1.31-.33,2.65-.45,4.23-.6-.71,2.19-2.3,2.49-4.23.6Z"/>
  <path class="st5" d="M845.99,175.92c.94-.23,1.92-.29,3.31-.37,0,1.17,0,2.13-.09,3.33-1.12-.77-2.15-1.78-3.22-2.96Z"/>
  <path class="st3" d="M1072.4,153.47c-.61-.93-1.02-1.89-1.46-3.05.71-.13,1.44-.06,2.17,0-.17,1-.35,2.01-.71,3.05Z"/>
  <path class="st3" d="M1004.91,375.33c-.92-.37-1.68-.89-2.44-1.41.35-.35.7-.69,1.05-1.04.51.77,1.03,1.53,1.39,2.45Z"/>
  <path class="st3" d="M1040.32,379.5c-.73,1.08-1.55,1.98-2.55,2.95,0-.9.11-1.89.37-2.85.44-1.66,1.26-1.14,2.18-.1Z"/>
  <path class="st3" d="M469.61,475.5c.73,1.06,1.28,2.25,1.88,3.65-2.6.06-2.55-1.6-1.88-3.65Z"/>
  <path class="st3" d="M989.99,367.06c-.6-.07-1.11-.32-1.71-.71.12-1.82,1.01-2.31,2.97-1.61-.44.81-.8,1.47-1.26,2.32Z"/>
  <path class="st3" d="M1029.61,124.38c-.97.22-1.94.24-3.16.21.38-.72,1.01-1.4,1.63-2.08.51.56,1.01,1.11,1.52,1.87Z"/>
  <path class="st18" d="M1026.99,498.62c.24,1.15.28,2.34.26,3.78-1.73-.93-2.51-2.2-.26-3.78Z"/>
  <path class="st3" d="M119.09,45.48c-.15,1.08-.51,2.07-1.05,3.13-1.94-1.68-1.47-2.74,1.05-3.13Z"/>
  <path class="st3" d="M1144.06,124.34c-.95.24-1.92.29-3.13.28.59-2.39,1.71-2.46,3.13-.28Z"/>
  <path class="st3" d="M734.26,466.98c.56.89.96,1.89,1.33,3.1-1.95-.2-2.97-1.03-1.33-3.1Z"/>
  <path class="st3" d="M1092.75,283.32c.27.75.34,1.54.38,2.56-2.75-.19-2.15-1.27-.38-2.56Z"/>
  <path class="st3" d="M1120.33,128.61c-.61.52-1.26.82-2.09,1.14.09-.69.37-1.39.65-2.1.47.25.94.5,1.45.96Z"/>
  <path class="st3" d="M345.24,311.05c.21-.69.63-1.38,1.04-2.08.26.23.53.47.79.7-.54.46-1.09.92-1.84,1.38Z"/>
  <path class="st3" d="M18.47,397.23c.04.79-.13,1.59-.38,2.59-2.17-.92-1.33-1.78.38-2.59Z"/>
  <path class="st3" d="M160.44,12.79c-.3.43-.7.63-1.23.9-.4-.41-.68-.9-.95-1.39.69.08,1.39.17,2.18.49Z"/>
  <path class="st3" d="M484.37,497.09c.17.67.15,1.29.12,1.91-.32-.09-.64-.18-.96-.27.21-.56.43-1.13.84-1.64Z"/>
  <path class="st5" d="M671.08,126.25c.23.8.28,1.64.26,2.73-1.21-.61-2.36-1.46-.26-2.73Z"/>
  <path class="st1" d="M121.87,504.04c.93-.32,1.97-.45,3.15-.43-.92.31-1.98.46-3.15.43Z"/>
  <path class="st3" d="M164.26,235.29c.75.42,1.5,1.06,2.23,1.9-.75-.43-1.49-1.06-2.23-1.9Z"/>
  <path class="st3" d="M1093.51,164.86c.24.61.27,1.21.22,2.03-.61-.19-1.14-.59-1.67-.99.41-.35.83-.7,1.45-1.04Z"/>
  <path class="st1" d="M68.07,504.29c.66-.29,1.55-.51,2.55-.59-.7.32-1.51.48-2.55.59Z"/>
  <path class="st3" d="M122.78,287.15c-.5.53-1.12.9-1.94,1.28-.28-1.5.28-2.14,1.94-1.28Z"/>
  <path class="st3" d="M103.51,296.78c-.5.53-1.12.9-1.94,1.28-.28-1.5.28-2.14,1.94-1.28Z"/>
  <path class="st3" d="M1014.56,392.42c-.1.51-.34.89-.58,1.26-.23-.23-.46-.47-.69-.7.38-.23.75-.47,1.27-.56Z"/>
  <path class="st3" d="M11.95,404.65c.49-.18.94-.16,1.38-.14-.09.32-.17.64-.26.96-.39-.21-.78-.42-1.13-.82Z"/>
  <path class="st3" d="M744.49,377.42c-.25.74-.73,1.49-1.38,2.34.27-.71.71-1.52,1.38-2.34Z"/>
  <path class="st3" d="M32.06,351.35c.03.79-.18,1.61-.57,2.54-.01-.76.16-1.63.57-2.54Z"/>
  <path class="st3" d="M288.6,213.55c-.19-.4-.2-.82-.18-1.46.15.34.25.88.18,1.46Z"/>
  <path class="st4" d="M8.06,494.1c.05.57-.1,1.19-.46,1.83-.06-.58.1-1.18.46-1.83Z"/>
  <path class="st3" d="M117.11,50.95c.14.31.09.65-.08,1.1-.12-.28-.11-.68.08-1.1Z"/>
  <path class="st3" d="M736.41,392.68c.14.32.11.67-.1,1.08-.14-.31-.11-.68.1-1.08Z"/>
  <path class="st0" d="M112.44,79.85c.18.23.21.49.18.94-.32,0-.58-.19-.84-.38.17-.18.34-.36.66-.56Z"/>
  <path class="st3" d="M265.16,10.35c.14.23.14.45.12.67,0,0-.17,0-.27,0,0-.22,0-.45.15-.67Z"/>
  <path class="st3" d="M1058.74,128.55c.23-.14.45-.14.67-.12,0,0,0,.17,0,.27-.22,0-.45,0-.67-.15Z"/>
  <path class="st0" d="M112.44,93.44c.16.08.19.18.18.43-.26.05-.49-.04-.72-.13.13-.09.27-.19.53-.3Z"/>
  <path class="st6" d="M1143.08,253.2c-.03-.12.05-.29.28-.43.09.18-.02.3-.28.43Z"/>
  <path class="st11" d="M1143.61,178.76c1.77-2.75,4.31-3.08,7.06-3.08,24.46.02,48.92.01,73.38.01,20.3,0,40.61,0,60.91,0,5.73,0,8.03,2.31,8.05,8.09.02,5.75,0,11.5,0,17.46h-150.48c.33-7.5.65-14.89,1.07-22.49Z"/>
  <path class="st3" d="M783.47,445.27c0-8.96-.02-17.64.01-26.33.02-5.24,1.95-7.14,7.2-7.14,54.95,0,109.9,0,164.86,0,5.14,0,7.25,2.07,7.27,7.14.03,8.97.03,17.94,0,26.91-.01,4.47-2.26,6.79-6.72,6.91-3.02.08-6.04.02-9.06.02-52.02,0-104.05,0-156.07,0-5.41,0-7.26-1.81-7.48-7.5Z"/>
  <path class="st3" d="M748.17,373.42c-.2-.69-.25-1.44-.29-2.19.59.06,1.17.12,1.79.37-.42.71-.88,1.24-1.5,1.82Z"/>
  <path class="st3" d="M1347.12,414.02c1.32-.25,2.43-.51,3.55-.51,44.19-.02,88.38-.02,132.57-.01.65,0,1.31.06,2.17.11v39.92c-1.03,0-2.03,0-3.03,0-43.44,0-86.87,0-130.31-.01-1.32,0-2.66-.03-3.94-.29-2.38-.48-4.02-1.99-4.05-4.44-.12-10-.2-20.01.04-30.02.04-1.56,1.82-3.09,2.99-4.75Z"/>
  <path class="st10" d="M170.35,222.71c-8.59.56-14.63-3.37-18.94-10.06-3.22-5-.23-11.02,5.63-12.04,3.77-.65,5.82,1.37,4.89,5.8-.11-.36-.23-.72-.34-1.08-.79-2.54-2.41-3.47-4.99-2.59-2.71.93-4.1,3.11-3.58,5.63.69,3.31,3.34,5.61,6.78,5.81,4.98.28,9.2-1.49,12.13-5.45,2.51-3.39,4.51-7.17,6.68-10.81,4.61-7.73,11.03-13.07,20.24-13.61,3.16-.19,6.44,1.58,9.67,2.43.73.19,1.65.63,2.22.38,10.21-4.59,17.96-3.42,25.61,4.41,2.4,2.46,4.14,5.58,6.07,8.47,1.98,2.98,3.59,6.23,5.79,9.03,2.97,3.79,7.13,5.47,11.98,5.15,3.53-.23,6.37-2.93,6.67-6.19.24-2.61-1.23-4.62-3.99-5.4-2.56-.72-3.91.58-4.63,2.88-.07.22-.33.39-.53.62-.93-2.97.55-5.3,3.44-5.54,6.02-.5,10.38,5.89,7.79,11.41-3.67,7.81-14.27,12.96-22.43,10.07-4.88-1.73-9.54-4.51-13.78-7.54-5.11-3.64-10.14-7.15-16.26-8.92-2.22-.64-4.25-1.95-6.31-2.92-9.25,3.63-18.46,7.53-26.24,14.25-3.7,3.2-8.24,5.33-13.57,5.81Z"/>
  <path class="st16" d="M285.13,128.62c.27.96.3,1.91.05,3.14-.48,1.92-.82,3.56-.82,5.21,0,.79.64,1.58.99,2.37.02.94.04,1.88.02,3.05-2.1.23-4.16.23-6.26.23-2.38,9.39-7.28,16.72-15.36,21.52-12.37,7.34-24.94,7.16-36.73-1-11.89-8.22-16.76-20.07-13.91-34.27,2.79-13.94,11.66-22.89,25.47-26.22,17.11-4.12,34.32,5.79,39.52,22.49.87,2.8,1.98,3.95,4.81,3.45.64-.11,1.32.01,2.23.03M275.29,141.15c.19-1.59.5-3.17.54-4.76.47-19.43-16.86-33.79-36.07-29.92-15.9,3.2-26.12,19.22-22.7,35.58,3.27,15.65,19.95,26.19,35.53,22.37,12.14-2.98,19.48-10.83,22.7-23.26Z"/>
  <path class="st19" d="M250.96,238.51c-2.08,2.74-3.95,5.68-6.3,8.17-6.02,6.38-12.59,12.14-20.44,16.24-9.96,5.2-19.64,4.4-29.27-1.08-9.79-5.57-17.78-13.15-25.13-21.52-.17-.19-.2-.49-.57-1.47,1.35.62,2.19.94,2.96,1.38,7.99,4.54,15.9,9.23,23.97,13.63,9.64,5.24,19.3,4.9,29.16.1,8.93-4.34,17.16-9.71,25.43-15.42.2-.02.2-.02.2-.02Z"/>
  <path class="st16" d="M289.78,142.64c-.24-.95-.27-1.9-.26-3.08.92.23,1.79.69,2.66,1.15-.73.64-1.47,1.29-2.41,1.93Z"/>
  <path class="st17" d="M285.35,203.53c.09.39.02.89-.21,1.5-.09-.4-.02-.89.21-1.5Z"/>
  <path class="st19" d="M167.91,237.68s.02.03,0,0Z"/>
  <path class="st19" d="M250.96,238.51c.05-.02.11-.04.08-.03-.08.03-.08.03-.08.03Z"/>
  <path class="st3" d="M516.74,447.29c1.53.24,1.46,1.01.3,2-.24-.57-.29-1.17-.3-2Z"/>
  <path class="st3" d="M219.86,5.39c.33-.76.81-1.39,1.64-2.45.28,1.08.42,1.62.56,2.36-.68.21-1.36.22-2.2.09Z"/>
  <path class="st14" d="M285.4,139.08c-.4-.53-1.04-1.32-1.04-2.11,0-1.65.35-3.29.78-4.98.25,2.25.28,4.54.26,7.09Z"/>
  <path class="st3" d="M288.99,204.74c.85-.18,1.66-.13,2.47-.08.11.26.23.52.34.79-.78.44-1.57.89-2.56,1.33-.24-.61-.26-1.21-.25-2.04Z"/>
  <path class="st8" d="M275.25,141.38c-3.18,12.2-10.52,20.04-22.66,23.02-15.58,3.83-32.26-6.72-35.53-22.37-3.42-16.36,6.8-32.38,22.7-35.58,19.21-3.87,36.54,10.49,36.07,29.92-.04,1.59-.35,3.17-.58,5M228.8,152.76c-.06-.03-.12-.05-.18-.08.07.09.15.18.26.67,4.3,5.06,10.11,7.13,16.4,7.43,11.25.54,21.39-6.9,24.51-17.81,2.34-8.15,1.1-15.77-4.72-22.51-.06-.03-.11-.06-.17-.08.07.09.15.18.22.71,3.16,8.06,3.1,15.88-1.2,23.63-4.49,8.1-15.78,13.74-24.68,11.69-3.54-.81-6.92-2.31-10.44-3.66M234.53,122.61c-.99,4.63-1.98,9.26-2.97,13.88.32.09.65.18.97.26,1.98-6.7,3.99-13.38,5.9-20.1.12-.43-.47-1.05-.72-1.59-.61.44-1.59.75-1.78,1.33-.61,1.86-.93,3.82-1.39,6.21M237.24,141.14c.43-2.28.86-4.55,1.29-6.83-.29-.07-.58-.14-.88-.21-1.71,5.35-3.49,10.67-5.05,16.06-.23.78.58,1.85,1.08,3.27.68-.97.93-1.18.99-1.43.82-3.47,1.61-6.94,2.57-10.86M231.27,138.1c.07.09.13.19.2.28-.01-.13-.03-.26-.2-.28M238.91,132.65c-.06-.09-.13-.18-.19-.27.01.13.03.25.19.27Z"/>
  <path class="st15" d="M265.13,120.63c5.76,6.57,7,14.18,4.66,22.33-3.13,10.91-13.26,18.35-24.51,17.81-6.29-.3-12.1-2.38-16.41-7.63-.01-.2,0-.22,0-.22,3.45,1.18,6.83,2.68,10.37,3.49,8.9,2.04,20.19-3.59,24.68-11.69,4.3-7.76,4.35-15.58,1.2-23.86,0-.22,0-.23,0-.23Z"/>
  <path class="st0" d="M234.54,122.37c.45-2.16.77-4.11,1.38-5.98.19-.57,1.16-.89,1.78-1.33.26.53.84,1.16.72,1.59-1.91,6.72-3.92,13.4-5.9,20.1-.32-.09-.65-.18-.97-.26.99-4.63,1.98-9.26,2.99-14.12Z"/>
  <path class="st0" d="M237.16,141.36c-.88,3.7-1.67,7.17-2.48,10.64-.06.25-.31.46-.99,1.43-.5-1.42-1.31-2.5-1.08-3.27,1.56-5.39,3.34-10.72,5.05-16.06.29.07.58.14.88.21-.43,2.28-.86,4.55-1.38,7.05Z"/>
  <path class="st0" d="M231.35,138.04c.09.07.11.21.12.34-.07-.09-.13-.19-.12-.34Z"/>
  <path class="st0" d="M238.83,132.7c-.09-.07-.1-.2-.11-.33.06.09.13.18.11.33Z"/>
  <path class="st15" d="M265.13,120.64c-.08-.09-.15-.17-.22-.26.06.03.11.06.2.17.03.09.03.09.03.09Z"/>
  <path class="st15" d="M228.85,152.95c-.08-.09-.15-.18-.23-.27.06.03.12.05.21.16.04.09.02.1.01.11Z"/>
  <polygon class="st9" points="252.88 254.28 256.1 269.4 246.15 346.92 209.51 308.7 252.88 254.28"/>
  <polygon class="st9" points="166.51 254.28 162.81 269.7 173.23 344.69 209.59 308.7 166.51 254.28"/>
</svg>